<svg xmlns="http://www.w3.org/2000/svg" style="display: none;">

    <defs>
        <linearGradient id="grad" x1="0%" y1="50%" x2="50%" y2="0%">
            <stop offset="0%" stop-color="#4facfe"/>
            <stop offset="100%" stop-color="#8e44ad"/>
        </linearGradient>
    </defs>

    <!-- GitHub -->
    <symbol id="github" viewBox="0 0 24.00 24.00" fill="currentColor">
        <path d="M12,2A10,10,0,0,0,8.84,21.5c.5.08.66-.23.66-.5V19.31C6.73,19.91,6.14,18,6.14,18A2.69,2.69,0,0,0,5,16.5c-.91-.62.07-.6.07-.6a2.1,2.1,0,0,1,1.53,1,2.15,2.15,0,0,0,2.91.83,2.16,2.16,0,0,1,.63-1.34C8,16.17,5.62,15.31,5.62,11.5a3.87,3.87,0,0,1,1-2.71,3.58,3.58,0,0,1,.1-2.64s.84-.27,2.75,1a9.63,9.63,0,0,1,5,0c1.91-1.29,2.75-1,2.75-1a3.58,3.58,0,0,1,.1,2.64,3.87,3.87,0,0,1,1,2.71c0,3.82-2.34,4.66-4.57,4.91a2.39,2.39,0,0,1,.69,1.85V21c0,.27.16.59.67.5A10,10,0,0,0,12,2Z"/>
    </symbol>


    <!-- Twitter -->
    <symbol id="twitter" viewBox="-51.2 -51.2 614.40 614.40" fill="currentColor">
        <path d="M256,0C114.615,0,0,114.615,0,256s114.615,256,256,256s256-114.615,256-256S397.385,0,256,0z M260.926,217.391 c0.084,0.004,0.164,0.021,0.25,0.025c-0.875-3.752-1.328-7.664-1.328-11.682c0-28.307,22.951-51.258,51.262-51.258 c14.742,0,28.063,6.225,37.414,16.188c9.6-1.89,18.684-5.174,27.129-9.523c1.781-0.864,3.566-1.723,5.32-2.674 c-3.039,9.334-8.744,17.412-16.141,23.532c-2.004,1.576-4.062,3.098-6.326,4.344c0.154-0.018,0.304-0.052,0.457-0.071 c-0.15,0.093-0.275,0.22-0.428,0.312c8.402-1.005,16.459-3.051,24.111-5.942c1.715-0.592,3.428-1.191,5.127-1.852 c-6.842,10.159-15.453,19.095-25.375,26.259c0.098,2.197,0.148,4.406,0.148,6.631c0,67.736-51.558,145.842-145.844,145.842 c-28.947,0-55.891-8.484-78.576-23.028c4.01,0.473,8.092,0.715,12.229,0.715c19.136,0,37.014-5.269,52.383-14.34 c3.871-2.23,7.658-4.639,11.273-7.365c-0.098-0.002-0.187-0.026-0.285-0.028c0.094-0.073,0.196-0.136,0.289-0.209 c-19.422-0.358-36.184-11.539-44.574-27.747c-1.25-2.489-2.32-5.096-3.164-7.831c3.086,0.58,6.246,0.898,9.5,0.898 c3.391,0,6.666-0.436,9.871-1.063c1.197-0.168,2.406-0.308,3.586-0.502c-0.156-0.032-0.293-0.1-0.449-0.133 c0.162-0.042,0.336-0.056,0.496-0.1c-23.449-4.709-41.119-25.428-41.119-50.262c0-0.196,0.002-0.387,0.004-0.58l0.024-0.055 c5.521,3.064,11.693,5.092,18.23,5.94c1.609,0.269,3.221,0.516,4.832,0.657c-0.11-0.074-0.205-0.164-0.314-0.238 c0.152,0.006,0.297,0.036,0.447,0.041c-13.754-9.191-22.803-24.883-22.803-42.666c0-8.142,1.988-15.787,5.367-22.623 c0.539-1.028,1.018-2.078,1.637-3.074c22.711,27.822,55.516,46.971,92.801,52.15c4.16,0.605,8.332,1.144,12.553,1.388 C260.934,217.443,260.932,217.416,260.926,217.391z"/>
    </symbol>

    <!-- LinkedIn -->
    <symbol id="linkedin" viewBox="-2 -2 24.00 24.00" fill="currentColor">
        <path d="M10 .4C4.698.4.4 4.698.4 10s4.298 9.6 9.6 9.6 9.6-4.298 9.6-9.6S15.302.4 10 .4zM7.65 13.979H5.706V7.723H7.65v6.256zm-.984-7.024c-.614 0-1.011-.435-1.011-.973 0-.549.409-.971 1.036-.971s1.011.422 1.023.971c0 .538-.396.973-1.048.973zm8.084 7.024h-1.944v-3.467c0-.807-.282-1.355-.985-1.355-.537 0-.856.371-.997.728-.052.127-.065.307-.065.486v3.607H8.814v-4.26c0-.781-.025-1.434-.051-1.996h1.689l.089.869h.039c.256-.408.883-1.01 1.932-1.01 1.279 0 2.238.857 2.238 2.699v3.699z"/>
    </symbol>


    <!-- Moon -->
    <symbol id="moon" fill="currentColor" viewBox="0 0 56 56">
        <path d="M 41.1485 36.1563 C 28.4688 36.1563 20.3594 28.2109 20.3594 15.5078 C 20.3594 12.8828 20.9923 9.1328 21.8126 7.1875 C 22.0469 6.6484 22.0704 6.3203 22.0704 6.0859 C 22.0704 5.4531 21.6016 4.7500 20.7110 4.7500 C 20.4298 4.7500 19.8907 4.8203 19.3751 5.0078 C 10.7032 8.4766 4.8907 17.8047 4.8907 27.6250 C 4.8907 41.4062 15.3907 51.25 29.1251 51.25 C 39.2032 51.25 47.9688 45.1328 50.8751 37.4922 C 51.0627 36.9531 51.1093 36.3906 51.1093 36.1797 C 51.1093 35.3125 50.4061 34.7266 49.7499 34.7266 C 49.4451 34.7266 49.1874 34.7968 48.7424 34.9375 C 46.9376 35.5234 44.0313 36.1563 41.1485 36.1563 Z"/>
    </symbol>


    <!-- Sun -->
    <symbol id="sun" viewBox="-2.4 -2.4 28.80 28.80">
        <path d="M11 1C11 0.447715 11.4477 0 12 0C12.5523 0 13 0.447715 13 1V3C13 3.55228 12.5523 4 12 4C11.4477 4 11 3.55228 11 3V1Z"
              fill="currentColor"/>
        <path fill-rule="evenodd" clip-rule="evenodd"
              d="M18 12C18 15.3137 15.3137 18 12 18C8.68629 18 6 15.3137 6 12C6 8.68629 8.68629 6 12 6C15.3137 6 18 8.68629 18 12ZM8.06167 12C8.06167 14.1751 9.82492 15.9383 12 15.9383C14.1751 15.9383 15.9383 14.1751 15.9383 12C15.9383 9.82492 14.1751 8.06167 12 8.06167C9.82492 8.06167 8.06167 9.82492 8.06167 12Z"
              fill="currentColor"/>
        <path d="M20.4853 3.51472C20.0947 3.12419 19.4616 3.12419 19.0711 3.51472L17.6568 4.92893C17.2663 5.31946 17.2663 5.95262 17.6568 6.34315C18.0474 6.73367 18.6805 6.73367 19.0711 6.34315L20.4853 4.92893C20.8758 4.53841 20.8758 3.90524 20.4853 3.51472Z"
              fill="currentColor"/>
        <path d="M1 13C0.447715 13 0 12.5523 0 12C0 11.4477 0.447715 11 1 11H3C3.55228 11 4 11.4477 4 12C4 12.5523 3.55228 13 3 13H1Z"
              fill="currentColor"/>
        <path d="M3.51472 3.51472C3.1242 3.90524 3.1242 4.53841 3.51472 4.92893L4.92894 6.34315C5.31946 6.73367 5.95263 6.73367 6.34315 6.34315C6.73368 5.95262 6.73368 5.31946 6.34315 4.92893L4.92894 3.51472C4.53841 3.12419 3.90525 3.12419 3.51472 3.51472Z"
              fill="currentColor"/>
        <path d="M11 21C11 20.4477 11.4477 20 12 20C12.5523 20 13 20.4477 13 21V23C13 23.5523 12.5523 24 12 24C11.4477 24 11 23.5523 11 23V21Z"
              fill="currentColor"/>
        <path d="M6.34315 17.6569C5.95263 17.2663 5.31946 17.2663 4.92894 17.6569L3.51473 19.0711C3.1242 19.4616 3.1242 20.0948 3.51473 20.4853C3.90525 20.8758 4.53842 20.8758 4.92894 20.4853L6.34315 19.0711C6.73368 18.6805 6.73368 18.0474 6.34315 17.6569Z"
              fill="currentColor"/>
        <path d="M21 13C20.4477 13 20 12.5523 20 12C20 11.4477 20.4477 11 21 11H23C23.5523 11 24 11.4477 24 12C24 12.5523 23.5523 13 23 13H21Z"
              fill="currentColor"/>
        <path d="M17.6568 17.6569C17.2663 18.0474 17.2663 18.6805 17.6568 19.0711L19.0711 20.4853C19.4616 20.8758 20.0947 20.8758 20.4853 20.4853C20.8758 20.0948 20.8758 19.4616 20.4853 19.0711L19.0711 17.6569C18.6805 17.2663 18.0474 17.2663 17.6568 17.6569Z"
              fill="currentColor"/>
    </symbol>

    <!-- AboutMe -->
    <symbol id="about" viewBox="-6.4 -6.4 76.80 76.80" enable-background="new 0 0 64 64">
        <path fill="url(#grad)"
              d="M32,0C14.327,0,0,14.327,0,32s14.327,32,32,32s32-14.327,32-32S49.673,0,32,0z M49.972,31 c-0.138-5.582-1.414-10.878-3.613-15.667c2.652-1.022,5.169-2.317,7.515-3.854c4.824,5.14,7.854,11.976,8.102,19.521H49.972z M33.333,61.966c-0.11,0.005-0.222,0.005-0.333,0.009V50.035c3.324,0.087,6.547,0.581,9.605,1.47 C40.184,55.541,37.029,59.084,33.333,61.966z M44.549,52.141c2.283,0.801,4.462,1.817,6.523,3.018 c-3.991,3.29-8.849,5.563-14.178,6.438C39.902,58.861,42.484,55.672,44.549,52.141z M21.394,51.505 c3.059-0.89,6.282-1.383,9.606-1.47v11.939c-0.111-0.004-0.223-0.004-0.333-0.009C26.97,59.084,23.816,55.541,21.394,51.505z M27.105,61.596c-5.329-0.874-10.187-3.147-14.178-6.438c2.062-1.2,4.24-2.217,6.523-3.017 C21.515,55.672,24.098,58.861,27.105,61.596z M2.025,31c0.248-7.545,3.277-14.381,8.102-19.521c2.346,1.536,4.862,2.831,7.515,3.854 C15.442,20.122,14.166,25.418,14.028,31H2.025z M43.57,14.196c-3.345,1.069-6.894,1.67-10.57,1.766V2.025 c0.111,0.004,0.223,0.004,0.333,0.009C37.541,5.314,41.047,9.453,43.57,14.196z M36.895,2.404 c5.944,0.976,11.298,3.696,15.521,7.622c-2.176,1.391-4.496,2.57-6.944,3.499C43.278,9.326,40.369,5.562,36.895,2.404z M31,2.025 v13.937c-3.677-0.096-7.226-0.696-10.57-1.766c2.523-4.743,6.029-8.882,10.237-12.162C30.777,2.029,30.889,2.029,31,2.025z M18.529,13.525c-2.448-0.929-4.769-2.108-6.944-3.499c4.223-3.926,9.576-6.646,15.521-7.622 C23.631,5.562,20.722,9.326,18.529,13.525z M19.532,16.009c3.622,1.189,7.472,1.873,11.468,1.972V31H16.031 C16.17,25.654,17.403,20.584,19.532,16.009z M31,33v15.036c-3.684,0.092-7.245,0.665-10.615,1.689 C17.732,44.712,16.188,39.029,16.031,33H31z M33,48.036V33h14.969c-0.156,6.029-1.701,11.712-4.354,16.726 C40.245,48.701,36.684,48.128,33,48.036z M33,31V17.98c3.996-0.099,7.846-0.782,11.468-1.972c2.129,4.575,3.362,9.646,3.501,14.991 H33z M2.025,33h12.003c0.154,6.253,1.74,12.146,4.447,17.369c-2.496,0.899-4.871,2.044-7.109,3.396 C5.827,48.513,2.294,41.172,2.025,33z M52.634,53.766c-2.238-1.353-4.613-2.497-7.109-3.396c2.707-5.224,4.293-11.116,4.447-17.369 h12.003C61.706,41.172,58.173,48.513,52.634,53.766z"/>
    </symbol>

    <!-- Work -->
    <symbol id="work" fill="url(#grad)" viewBox="0 0 1024 1024">
        <path d="M849.92 914.176c33.93 0 61.44-27.51 61.44-61.44V378.132c0-33.93-27.51-61.44-61.44-61.44H174.08c-33.93 0-61.44 27.51-61.44 61.44v474.604c0 33.93 27.51 61.44 61.44 61.44h675.84zm0 40.96H174.08c-56.551 0-102.4-45.849-102.4-102.4V378.132c0-56.551 45.849-102.4 102.4-102.4h675.84c56.551 0 102.4 45.849 102.4 102.4v474.604c0 56.551-45.849 102.4-102.4 102.4z"/>
        <path d="M234.752 297.444v622.551c0 11.311 9.169 20.48 20.48 20.48s20.48-9.169 20.48-20.48V297.444c0-11.311-9.169-20.48-20.48-20.48s-20.48 9.169-20.48 20.48zm513.024 9.918v622.551c0 11.311 9.169 20.48 20.48 20.48s20.48-9.169 20.48-20.48V307.362c0-11.311-9.169-20.48-20.48-20.48s-20.48 9.169-20.48 20.48zM389.12 286.72V163.84c0-33.93 27.51-61.44 61.44-61.44h143.36c33.93 0 61.44 27.51 61.44 61.44v122.88c0 11.311 9.169 20.48 20.48 20.48s20.48-9.169 20.48-20.48V163.84c0-56.551-45.849-102.4-102.4-102.4H450.56c-56.551 0-102.4 45.849-102.4 102.4v122.88c0 11.311 9.169 20.48 20.48 20.48s20.48-9.169 20.48-20.48z"/>
    </symbol>

    <!-- Education -->
    <symbol id="education" fill="url(#grad)" viewBox="0 0 1024 1024">
        <path d="M197.769 791.767l60.672-286.853c2.341-11.066-4.733-21.934-15.799-24.275s-21.934 4.733-24.275 15.799l-60.672 286.853c-2.341 11.066 4.733 21.934 15.799 24.275s21.934-4.733 24.275-15.799zm571.063-286.786l61.778 287.068c2.38 11.058 13.273 18.093 24.33 15.713s18.093-13.273 15.713-24.33l-61.778-287.068c-2.38-11.058-13.273-18.093-24.33-15.713s-18.093 13.273-15.713 24.33z"/>
        <path d="M967.45 386.902L535.9 208.126c-10.609-4.399-30.569-4.442-41.207-.088L57.821 386.901l436.881 178.857c10.624 4.355 30.583 4.313 41.207-.085L967.45 386.901zM551.583 603.516c-20.609 8.533-51.787 8.599-72.409.145L24.437 417.494c-32.587-13.359-32.587-47.847.009-61.188l454.73-186.174c20.641-8.448 51.818-8.382 72.407.156l448.836 185.936c32.466 13.442 32.466 47.913.004 61.354l-448.84 185.938zm288.673 166.569c-98 57.565-209.669 88.356-325.888 88.356-116.363 0-228.162-30.866-326.246-88.564-9.749-5.735-22.301-2.481-28.036 7.268s-2.481 22.301 7.268 28.036c104.336 61.377 223.297 94.22 347.014 94.22 123.564 0 242.386-32.763 346.634-93.998 9.753-5.729 13.015-18.279 7.286-28.032s-18.279-13.015-28.032-7.286z"/>
        <path d="M983.919 383.052v296.233c0 11.311 9.169 20.48 20.48 20.48s20.48-9.169 20.48-20.48V383.052c0-11.311-9.169-20.48-20.48-20.48s-20.48 9.169-20.48 20.48z"/>
    </symbol>

    <!-- Skills -->

    <symbol id="tech" viewBox="0 0 24 24" fill="none">
        <path d="M7 8L3 12L7 16" stroke="url(#grad)" stroke-width="1" stroke-linecap="round" stroke-linejoin="round"/>
        <path d="M17 8L21 12L17 16" stroke="url(#grad)" stroke-width="1" stroke-linecap="round"
              stroke-linejoin="round"/>
        <path d="M14 4L9.8589 19.4548" stroke="url(#grad)" stroke-width="1" stroke-linecap="round"
              stroke-linejoin="round"/>
    </symbol>

    <!-- Folder -->
    <symbol id="folder" viewBox="0 0 24.00 24.00" fill="none" xmlns="http://www.w3.org/2000/svg">
        <path d="M3 8.2C3 7.07989 3 6.51984 3.21799 6.09202C3.40973 5.71569 3.71569 5.40973 4.09202 5.21799C4.51984 5 5.0799 5 6.2 5H9.67452C10.1637 5 10.4083 5 10.6385 5.05526C10.8425 5.10425 11.0376 5.18506 11.2166 5.29472C11.4184 5.4184 11.5914 5.59135 11.9373 5.93726L12.0627 6.06274C12.4086 6.40865 12.5816 6.5816 12.7834 6.70528C12.9624 6.81494 13.1575 6.89575 13.3615 6.94474C13.5917 7 13.8363 7 14.3255 7H17.8C18.9201 7 19.4802 7 19.908 7.21799C20.2843 7.40973 20.5903 7.71569 20.782 8.09202C21 8.51984 21 9.0799 21 10.2V15.8C21 16.9201 21 17.4802 20.782 17.908C20.5903 18.2843 20.2843 18.5903 19.908 18.782C19.4802 19 18.9201 19 17.8 19H6.2C5.07989 19 4.51984 19 4.09202 18.782C3.71569 18.5903 3.40973 18.2843 3.21799 17.908C3 17.4802 3 16.9201 3 15.8V8.2Z"
              stroke="url(#grad)" stroke-width="1" stroke-linecap="round" stroke-linejoin="round"/>
    </symbol>

    <!-- Arrow -->
    <symbol id="arrow" viewBox="0 0 24 24" fill="none" xmlns="http://www.w3.org/2000/svg">
        <path d="M15.7071 5.29289C15.3166 4.90237 14.6834 4.90237 14.2929 5.29289C13.9024 5.68342 13.9024 6.31658 14.2929 6.70711L18.5858 11L3 11C2.44772 11 2 11.4477 2 12C2 12.5523 2.44772 13 3 13L18.5858 13L14.2929 17.2929C13.9024 17.6834 13.9024 18.3166 14.2929 18.7071C14.6834 19.0976 15.3166 19.0976 15.7071 18.7071L21.7071 12.7071C22.0976 12.3166 22.0976 11.6834 21.7071 11.2929L15.7071 5.29289Z"
              fill="currentColor"/>
    </symbol>

    <!-- Download -->
    <symbol id="download" viewBox="0 0 24 24" fill="none">
        <path d="M12 2C12.5523 2 13 2.44772 13 3L13 13.5858L16.2929 10.2929C16.6834 9.90237 17.3166 9.90237 17.7071 10.2929C18.0976 10.6834 18.0976 11.3166 17.7071 11.7071L12.7087 16.7055L12.6936 16.7204C12.5145 16.8929 12.2711 16.9992 12.003 17L12 17L11.997 17C11.8631 16.9996 11.7353 16.9729 11.6187 16.9247C11.5002 16.8759 11.3892 16.8034 11.2929 16.7071L6.29289 11.7071C5.90237 11.3166 5.90237 10.6834 6.29289 10.2929C6.68342 9.90237 7.31658 9.90237 7.70711 10.2929L11 13.5858L11 3C11 2.44772 11.4477 2 12 2Z"
              fill="currentColor"/>
        <path d="M4 17C4 16.4477 3.55228 16 3 16C2.44772 16 2 16.4477 2 17V20C2 21.1046 2.89543 22 4 22H20C21.1046 22 22 21.1046 22 20V17C22 16.4477 21.5523 16 21 16C20.4477 16 20 16.4477 20 17V20H4V17Z"
              fill="currentColor"/>
    </symbol>

    <!-- HTML -->
    <symbol id="html" viewBox="0 0 93 105">
        <path d="M8.42625 94.5038L0 0H92.5875L84.15 94.4888L46.2375 105L8.42625 94.5038Z" fill="#E44F26"/>
        <path d="M46.2937 96.9675L76.9312 88.4738L84.1387 7.72876H46.2937V96.9675Z" fill="#F1662A"/>
        <path d="M46.2937 42.7762H30.9562L29.8987 30.9074H46.2937V19.3162H17.2312L17.5087 22.4287L20.355 54.3674H46.2937V42.7762ZM46.2937 72.8774L46.2412 72.8924L33.3337 69.4087L32.5087 60.1649H20.8725L22.4962 78.3599L46.2412 84.9524L46.2937 84.9374V72.8774Z"
              fill="#EBEBEB"/>
        <path d="M46.2524 42.7762V54.3674H60.5249L59.1824 69.4012L46.2524 72.8887V84.9487L70.0162 78.3599L70.1887 76.4024L72.9112 45.8887L73.1962 42.7762H46.2524ZM46.2524 19.3162V30.9074H74.2499L74.4824 28.3049L75.0112 22.4287L75.2887 19.3162H46.2524Z"
              fill="white"/>
    </symbol>

    <!-- css -->
    <symbol id="css" viewBox="0 0 93 105">
        <path d="M8.4225 93.7162L0 0H92.58L84.1462 93.7013L46.2337 104.125L8.4225 93.7162Z" fill="#1572B6"/>
        <path d="M46.29 96.1594L76.9275 87.7364L84.135 7.66431H46.29V96.1594Z" fill="#33A9DC"/>
        <path d="M46.29 41.6165H61.6275L62.685 29.8467H46.29V18.3521H75.3525L75.075 21.4349L72.2288 53.1112H46.29V41.6165Z"
              fill="white"/>
        <path d="M46.3612 71.467L46.3087 71.4818L33.4012 68.0234L32.5762 58.8567H20.9399L22.5637 76.9038L46.3049 83.4413L46.3612 83.4265V71.467Z"
              fill="#EBEBEB"/>
        <path d="M60.6413 52.624L59.2463 68.0159L46.3201 71.4744V83.4339L70.0801 76.9037L70.2563 74.9626L72.2701 52.624H60.6413Z"
              fill="white"/>
        <path d="M46.3312 18.3521V29.8467H18.3337L18.1012 27.2622L17.5724 21.4349L17.2949 18.3521H46.3312ZM46.2899 41.6165V53.1112H33.5437L33.3112 50.5267L32.7862 44.6994L32.5087 41.6165H46.2899Z"
              fill="#EBEBEB"/>
    </symbol>

    <!-- javascript -->
    <symbol id="javascript" viewBox="0 0 105 105">
        <path d="M0 0H105V105H0V0Z" fill="#F5DE19"/>
        <path d="M70.5338 82.0312C71.4284 83.8485 72.8183 85.3759 74.5434 86.4375C76.2684 87.4991 78.2584 88.0515 80.2838 88.0313C84.3713 88.0313 86.985 85.9875 86.985 83.1562C86.985 79.7812 84.3 78.5738 79.8 76.605L77.3325 75.5475C70.2075 72.5138 65.4825 68.715 65.4825 60.6825C65.4825 53.2838 71.1075 47.6475 79.9313 47.6475C82.7877 47.4412 85.6416 48.0805 88.137 49.4856C90.6324 50.8907 92.659 52.9994 93.9638 55.5488L86.25 60.48C85.7476 59.216 84.8728 58.1345 83.7416 57.379C82.6105 56.6236 81.2764 56.2298 79.9163 56.25C79.3229 56.1906 78.7236 56.2555 78.1567 56.4404C77.5897 56.6254 77.0675 56.9265 76.6234 57.3244C76.1792 57.7224 75.8228 58.2085 75.5769 58.7518C75.331 59.2951 75.2009 59.8837 75.195 60.48C75.195 63.4388 77.0288 64.6388 81.2625 66.48L83.73 67.5375C92.115 71.1338 96.855 74.7975 96.855 83.0363C96.855 91.92 89.8763 96.7875 80.505 96.7875C76.8537 97.0201 73.213 96.1912 70.0223 94.4005C66.8317 92.6099 64.2274 89.9342 62.5238 86.6963L70.5338 82.0312ZM35.6775 82.8863C37.2263 85.635 38.6363 87.96 42.0263 87.96C45.2663 87.96 47.3138 86.6925 47.3138 81.7612V48.21H57.18V81.8925C57.18 92.1075 51.18 96.7575 42.4463 96.7575C39.3591 96.9263 36.2931 96.1569 33.6513 94.5506C31.0096 92.9442 28.9157 90.5761 27.645 87.7575L35.6775 82.8863Z"
              fill="black"/>
    </symbol>

    <!-- react -->
    <symbol id="react" viewBox="0 0 113 101">
        <path d="M92.9008 32.7027C91.6983 32.2886 90.4857 31.905 89.2639 31.5522C89.4692 30.7106 89.6581 29.8791 89.8258 29.0622C92.5791 15.6483 90.7792 4.84172 84.6313 1.28369C78.7368 -2.12728 69.0969 1.42943 59.3611 9.93336C58.4016 10.773 57.4634 11.6368 56.5474 12.5239C55.9342 11.934 55.3101 11.3555 54.6756 10.7888C44.472 1.6961 34.2445 -2.13614 28.1033 1.43209C22.2141 4.85368 20.4703 15.0126 22.949 27.7253C23.1956 28.9844 23.4741 30.2369 23.7841 31.4818C22.3364 31.8947 20.9395 32.3341 19.6026 32.8019C7.63967 36.9881 0 43.5482 0 50.3528C0 57.3808 8.20153 64.4299 20.6614 68.7043C21.6715 69.0494 22.6901 69.3692 23.7161 69.6633C23.3829 71.0041 23.0871 72.354 22.829 73.7113C20.4659 86.2034 22.3112 96.1222 28.1845 99.5221C34.2507 103.033 44.4322 99.4247 54.3458 90.7267C55.1497 90.0196 55.9359 89.2924 56.7036 88.5459C57.6956 89.5065 58.7141 90.4392 59.7579 91.3429C69.3612 99.6364 78.8454 102.985 84.713 99.5762C90.7734 96.0549 92.7432 85.3994 90.186 72.4355C89.9845 71.4199 89.7586 70.4093 89.5084 69.4046C90.2235 69.192 90.9252 68.9732 91.6094 68.7455C104.563 64.4384 112.991 57.4747 112.991 50.3528C112.991 43.5234 105.104 36.919 92.9008 32.7027ZM90.0915 64.1473C89.4736 64.3524 88.8398 64.5504 88.1936 64.7431C86.7636 60.1995 84.8339 55.3683 82.4721 50.3763C84.7258 45.5035 86.5813 40.7339 87.9712 36.2199C89.1271 36.5557 90.2486 36.9097 91.33 37.2831C101.786 40.8961 108.164 46.2371 108.164 50.3528C108.164 54.7366 101.276 60.4276 90.0915 64.1473ZM85.4509 73.3764C86.5817 79.1086 86.7428 84.2915 85.9938 88.3435C85.3212 91.9843 83.9679 94.4114 82.2943 95.3838C78.7337 97.4525 71.1188 94.7636 62.9062 87.6706C61.9354 86.8304 60.988 85.9633 60.0651 85.0703C63.2492 81.5756 66.431 77.513 69.5365 73.0008C74.9989 72.5144 80.1594 71.7188 84.8392 70.633C85.0646 71.5425 85.2686 72.4572 85.4509 73.3764ZM38.521 95.0263C35.0421 96.2591 32.2712 96.2946 30.5962 95.3253C27.0321 93.2623 25.5504 85.298 27.5715 74.615C27.8117 73.3526 28.0868 72.0972 28.3964 70.8501C33.0246 71.8778 38.1476 72.6167 43.6228 73.0623C46.7494 77.4776 50.0231 81.5357 53.3223 85.0893C52.6212 85.7702 51.9034 86.4337 51.1698 87.0792C46.7856 90.9252 42.3927 93.6539 38.521 95.0263ZM22.223 64.1203C16.7133 62.2301 12.1633 59.7738 9.04455 57.0933C6.24185 54.6848 4.82726 52.2931 4.82726 50.3528C4.82726 46.2234 10.961 40.9563 21.1915 37.3766C22.4331 36.9424 23.7324 36.5327 25.0808 36.1482C26.495 40.764 28.3496 45.5903 30.5878 50.4707C28.3205 55.4232 26.4394 60.3266 25.0115 64.997C24.075 64.7277 23.1452 64.4354 22.223 64.1203ZM27.6862 26.7946C25.5628 15.903 26.973 7.687 30.522 5.62491C34.3019 3.42861 42.6606 6.56005 51.4708 14.4115C52.0453 14.9246 52.6105 15.4482 53.1661 15.9818C49.8832 19.5199 46.6395 23.548 43.5407 27.9371C38.2266 28.4314 33.1398 29.2252 28.463 30.2888C28.1749 29.131 27.9159 27.966 27.6862 26.795V26.7946ZM76.4254 38.8738C75.3207 36.9588 74.1751 35.0679 72.9893 33.2023C76.5944 33.6599 80.0486 34.2673 83.2922 35.0097C82.3185 38.1425 81.1048 41.4175 79.6761 44.7753C78.6317 42.7866 77.548 40.8191 76.4254 38.8738ZM56.5496 19.4442C58.7759 21.8651 61.0057 24.5677 63.1988 27.5003C58.7498 27.2894 54.2934 27.2885 49.8443 27.4976C52.0397 24.5921 54.2885 21.893 56.5496 19.4442ZM36.5463 38.9071C35.4377 40.8366 34.3742 42.7919 33.3565 44.7713C31.9512 41.4254 30.7485 38.1354 29.7664 34.9583C32.9902 34.2345 36.428 33.6427 40.0102 33.1935C38.8111 35.0704 37.6562 36.9753 36.5463 38.9066V38.9071ZM40.113 67.8569C36.4121 67.4422 32.9226 66.881 29.6998 66.1766C30.6973 62.9429 31.9265 59.5828 33.3623 56.1652C34.3839 58.1461 35.4519 60.1025 36.5653 62.033C37.7102 64.0175 38.8957 65.9613 40.113 67.8569ZM56.6829 81.6026C54.3948 79.1255 52.113 76.3847 49.8845 73.4371C52.0481 73.5222 54.2536 73.5656 56.4953 73.5656C58.7984 73.5656 61.075 73.5137 63.3158 73.4136C61.1156 76.4144 58.8942 79.1591 56.6829 81.6026ZM79.7215 55.9907C81.2319 59.4459 82.5048 62.7883 83.5155 65.9667C80.2397 66.7171 76.7026 67.3213 72.9756 67.77C74.1699 65.8699 75.3263 63.9461 76.4443 61.9998C77.581 60.0214 78.6737 58.0179 79.7215 55.9907ZM72.2633 59.5793C70.5517 62.5634 68.7439 65.4908 66.8428 68.357C63.399 68.6018 59.9477 68.7234 56.4953 68.7216C52.9789 68.7216 49.5588 68.6117 46.2653 68.3973C44.3145 65.5378 42.4722 62.6052 40.7424 59.6059H40.7428C39.0211 56.6224 37.413 53.5744 35.9218 50.4685C37.4092 47.3618 39.0125 44.3124 40.7283 41.3266L40.7278 41.3271C42.443 38.3406 44.2705 35.4206 46.2066 32.5733C49.5667 32.3181 53.0125 32.1853 56.4949 32.1853H56.4953C59.9936 32.1853 63.4438 32.3195 66.8031 32.5764C68.7195 35.4194 70.5354 38.3294 72.2474 41.3009C73.9689 44.2801 75.5934 47.3146 77.1183 50.3998C75.6091 53.5165 73.9897 56.5783 72.2633 59.5793ZM82.2206 5.4805C86.004 7.67061 87.4755 16.5023 85.0983 28.0841C84.9464 28.823 84.7761 29.5756 84.5907 30.3389C79.9025 29.2527 74.8122 28.4452 69.4826 27.9433C66.378 23.5059 63.1609 19.4717 59.9314 15.9792C60.7778 15.1603 61.6443 14.3627 62.5302 13.5871C70.8721 6.30135 78.6684 3.42462 82.2206 5.4805ZM56.4953 40.2263C62.0676 40.2263 66.585 44.7602 66.585 50.3528C66.585 55.9455 62.0676 60.4794 56.4953 60.4794C50.923 60.4794 46.4056 55.9455 46.4056 50.3528C46.4056 44.7602 50.923 40.2263 56.4953 40.2263Z"
              fill="#00D8FF"/>
    </symbol>

    <!-- redux -->
    <symbol id="redux" viewBox="0 0 105 100">
        <path d="M72.6971 69.5627C76.5688 69.1619 79.5061 65.8242 79.3725 61.8184C79.2393 57.8131 75.9012 54.6086 71.8959 54.6086H71.6291C67.4897 54.7422 64.2856 58.2135 64.4193 62.3525C64.5529 64.3553 65.3537 66.091 66.5553 67.2926C62.016 76.2385 55.0734 82.7807 44.6594 88.2549C37.5832 91.9934 30.2402 93.3287 22.8971 92.3943C16.8889 91.593 12.216 88.923 9.27827 84.5164C5.00614 77.9742 4.60573 70.8975 8.21065 63.8213C10.7475 58.7475 14.7525 55.009 17.2893 53.1398C16.7553 51.4041 15.9541 48.4668 15.5537 46.3307C-3.80574 60.35 -1.80287 79.3094 4.07172 88.2549C8.47745 94.9311 17.4229 99.0701 27.3029 99.0701C29.9729 99.0701 32.643 98.8029 35.3135 98.1357C52.4033 94.7975 65.3541 84.65 72.6971 69.5627ZM96.1955 53.0066C86.0483 41.1234 71.0951 34.5811 54.0053 34.5811H51.8693C50.6676 32.1779 48.1307 30.5754 45.327 30.5754H45.0598C40.9213 30.709 37.7172 34.1803 37.8504 38.3197C37.984 42.325 41.3217 45.5295 45.327 45.5295H45.5938C48.5311 45.3959 51.068 43.5266 52.1361 40.9898H54.5393C64.6865 40.9898 74.2992 43.927 82.9779 49.6684C89.6533 54.0746 94.4598 59.816 97.1299 66.7586C99.3996 72.3664 99.266 77.8406 96.8627 82.5139C93.1246 89.5902 86.8496 93.4623 78.5717 93.4623C73.2311 93.4623 68.1578 91.8598 65.4873 90.6582C64.0188 91.9934 61.3484 94.1295 59.4791 95.4652C65.2205 98.1352 71.0951 99.6041 76.7025 99.6041C89.5197 99.6041 98.9992 92.5275 102.604 85.4512C106.476 77.707 106.209 64.3553 96.1955 53.0066ZM28.3709 71.832C28.5045 75.8377 31.8422 79.0418 35.8475 79.0418H36.1147C40.2537 78.9086 43.4578 75.4369 43.3242 71.2979C43.191 67.2922 39.8529 64.0881 35.8475 64.0881H35.5807C35.3135 64.0881 34.9127 64.0881 34.6463 64.2213C29.1721 55.1422 26.9025 45.2623 27.7037 34.5807C28.2373 26.5697 30.9078 19.6266 35.5807 13.8852C39.4525 8.94508 46.9291 6.5418 52.0029 6.40861C66.1549 6.14139 72.1627 23.7656 72.5635 30.8422C74.2992 31.2426 77.2365 32.1775 79.2393 32.8451C77.6369 11.2156 64.2856 0 51.4688 0C39.4524 0 28.3709 8.67869 23.9647 21.4963C17.8234 38.5865 21.8287 55.009 29.3053 67.9602C28.6381 68.8947 28.2373 70.3635 28.3709 71.8324V71.832Z"
              fill="#764ABC"/>
    </symbol>

    <!-- bootstrap -->
    <symbol id="bootstrap" viewBox="0 0 88 87">
        <path d="M0 75.7821C0 81.9781 5.08028 87 11.3468 87H76.6528C82.9204 87 88 81.9774 88 75.7821V11.2182C88 5.02187 82.9197 0 76.6532 0H11.3472C5.07959 0 0 5.02255 0 11.2179V75.7818V75.7821Z"
              fill="#563D7C"/>
        <path d="M36.4919 38.4832V26.1629H47.4613C48.5063 26.1629 49.5135 26.2489 50.4836 26.4212C51.4536 26.5931 52.312 26.9003 53.0583 27.3431C53.8042 27.786 54.4013 28.4007 54.8492 29.1875C55.2968 29.9746 55.5209 30.9829 55.5209 32.2121C55.5209 34.4255 54.8492 36.0241 53.5058 37.0076C52.1628 37.9915 50.4464 38.4832 48.3568 38.4832H36.4919ZM24.7759 17.1621V69.8379H50.5956C52.9837 69.8379 55.3095 69.5429 57.5731 68.9526C59.8367 68.3623 61.8514 67.4525 63.6176 66.223C65.3834 64.9934 66.789 63.407 67.8337 61.4645C68.8787 59.5216 69.4008 57.2222 69.4008 54.5663C69.4008 51.2709 68.5923 48.4553 66.9757 46.1192C65.3587 43.7828 62.9084 42.1474 59.6249 41.2129C62.0129 40.0819 63.8166 38.6307 65.0355 36.8601C66.2541 35.0895 66.8636 32.8765 66.8636 30.2203C66.8636 27.7612 66.4532 25.6956 65.6323 24.0232C64.8114 22.3512 63.6547 21.0108 62.1621 20.0025C60.6699 18.9942 58.879 18.2686 56.7893 17.8262C54.7 17.3833 52.3866 17.1621 49.8493 17.1621H24.7759ZM36.4919 60.8371V46.3771H49.2523C51.7895 46.3771 53.8293 46.9548 55.3717 48.111C56.9138 49.2668 57.6851 51.1971 57.6851 53.9023C57.6851 55.2797 57.4486 56.4107 56.976 57.296C56.5033 58.1813 55.8691 58.8823 55.073 59.3986C54.2772 59.9151 53.3566 60.2839 52.312 60.5054C51.267 60.7263 50.1728 60.8371 49.0285 60.8371H36.4919Z"
              fill="white"/>
    </symbol>

    <!-- tailwind -->
    <symbol id="tailwind" viewBox="0 0 131 131">
        <path d="M36.8438 56.0844C40.6646 40.801 50.2167 33.1594 65.5 33.1594C88.425 33.1594 91.2906 50.3531 102.753 53.2187C110.395 55.1292 117.081 52.2635 122.812 44.6219C118.992 59.9052 109.44 67.5469 94.1562 67.5469C71.2313 67.5469 68.3656 50.3531 56.9031 47.4875C49.2615 45.5771 42.575 48.4427 36.8438 56.0844ZM8.1875 90.4719C12.0083 75.1885 21.5604 67.5469 36.8438 67.5469C59.7687 67.5469 62.6344 84.7406 74.0969 87.6062C81.7385 89.5167 88.425 86.651 94.1562 79.0094C90.3354 94.2927 80.7833 101.934 65.5 101.934C42.575 101.934 39.7094 84.7406 28.2469 81.875C20.6052 79.9646 13.9187 82.8302 8.1875 90.4719Z"
              fill="#44A8B3"/>
    </symbol>

    <!-- sass -->
    <symbol id="sass" viewBox="0 0 117 87">
        <path d="M100.463 49.8709C96.3928 49.8917 92.8551 50.8637 89.8932 52.3005C88.806 50.1663 87.7193 48.265 87.5278 46.8703C87.3144 45.2436 87.0589 44.2503 87.3143 42.3064C87.5703 40.3625 88.721 37.5944 88.6995 37.3832C88.6785 37.1721 88.4436 36.1788 86.0996 36.158C83.7556 36.1367 81.7311 36.6016 81.4966 37.2142C81.2622 37.8268 80.8148 39.2215 80.5163 40.658C80.1114 42.7713 75.8284 50.314 73.3779 54.2653C72.5891 52.7233 71.9072 51.3707 71.7578 50.2932C71.5448 48.6665 71.2889 47.6732 71.5448 45.7293C71.8007 43.7854 72.9515 41.0177 72.93 40.8061C72.9085 40.595 72.6741 39.6017 70.3301 39.5809C67.9856 39.5596 65.9611 40.0245 65.7271 40.6371C65.4927 41.2502 65.2367 42.6866 64.7468 44.0813C64.2565 45.476 58.5667 58.0693 57.075 61.3227C56.4722 62.6396 55.8399 63.9429 55.1784 65.2318C55.1784 65.2318 55.157 65.2953 55.093 65.4008C54.8852 65.805 54.6722 66.2065 54.4541 66.6052V66.6261C54.1342 67.197 53.7932 67.7249 53.6228 67.7249C53.4948 67.7249 53.2604 66.2038 53.6653 64.133C54.5176 59.7594 56.5421 52.9558 56.5211 52.7233C56.5211 52.5964 56.9046 51.4133 55.1999 50.8003C53.5373 50.1876 52.9409 51.2017 52.7915 51.2017C52.6425 51.2017 52.5356 51.5611 52.5356 51.5611C52.5356 51.5611 54.3901 43.9123 48.9983 43.9123C45.6315 43.9123 40.9856 47.5677 38.6841 50.8637C36.0678 52.2754 33.4537 53.6911 30.8418 55.1108C29.5851 55.8082 28.2849 56.5055 27.0701 57.1603C26.9847 57.076 26.8997 56.97 26.8142 56.8857C20.2932 49.9765 8.2318 45.0954 8.74319 35.8199C8.93513 32.4392 10.1069 23.5647 31.9076 12.789C49.8506 4.02008 64.129 6.44974 66.6009 11.8378C70.1382 19.5292 58.9506 33.8126 40.4102 35.8829C33.3353 36.665 29.6271 33.9603 28.6898 32.9462C27.7095 31.8895 27.5601 31.8261 27.1976 32.0377C26.6012 32.3549 26.9847 33.3055 27.1976 33.8547C27.752 35.2911 30.032 37.8268 33.8892 39.0738C37.2989 40.1722 45.5886 40.7853 55.6258 36.9396C66.8564 32.629 75.6364 20.6489 73.058 10.6126C70.4791 0.428159 53.4308 -2.93131 37.2989 2.75224C27.7095 6.13346 17.3098 11.4577 9.82995 18.3882C0.943427 26.6283 -0.463244 33.7913 0.112129 36.7919C2.17964 47.4408 16.9904 54.3713 22.9146 59.5057C22.6161 59.6747 22.3387 59.8229 22.1047 59.9497C19.1424 61.4075 7.84791 67.26 5.03502 73.4511C1.83871 80.4659 5.54687 85.4951 7.99735 86.1707C15.6052 88.2628 23.426 84.5019 27.624 78.2895C31.8221 72.0776 31.3107 64.0061 29.3716 60.3086C29.3502 60.2665 29.3291 60.2239 29.2862 60.1817C30.0535 59.7381 30.8418 59.2732 31.6091 58.8296C33.0194 58.003 34.4476 57.2068 35.8927 56.4417C35.1679 58.4069 34.635 60.7522 34.3795 64.133C34.0596 68.1055 35.7003 73.2607 37.8528 75.2889C38.8121 76.1771 39.9413 76.1979 40.6661 76.1979C43.1806 76.1979 44.3103 74.1271 45.5676 71.6762C47.1017 68.676 48.4869 65.1897 48.4869 65.1897C48.4869 65.1897 46.7608 74.6133 51.4492 74.6133C53.1539 74.6133 54.88 72.4157 55.6473 71.296V71.3168C55.6473 71.3168 55.6898 71.2534 55.7753 71.1057C55.9458 70.8311 56.0522 70.6616 56.0522 70.6616V70.6199C56.7341 69.4364 58.2687 66.753 60.5487 62.2947C63.4896 56.5477 66.324 49.3638 66.324 49.3638C66.324 49.3638 66.5799 51.1174 67.4532 54.0333C67.9651 55.7448 69.0299 57.6252 69.8827 59.4422C69.2008 60.3934 68.7744 60.9212 68.7744 60.9212L68.7959 60.9425C68.2416 61.6607 67.6452 62.4424 66.9843 63.2036C64.6614 65.95 61.8914 69.0988 61.5075 70.0069C61.0597 71.0844 61.1666 71.8665 62.0194 72.5004C62.6373 72.9653 63.7451 73.0283 64.8748 72.9653C66.9633 72.8171 68.4335 72.3101 69.1579 71.9934C70.2876 71.5919 71.6088 70.9788 72.8446 70.0703C75.125 68.401 76.5098 66.0135 76.3823 62.8656C76.3183 61.1329 75.7429 59.4001 75.0396 57.7729C75.253 57.4775 75.4445 57.1816 75.6579 56.8857C79.2591 51.6666 82.051 45.9405 82.051 45.9405C82.051 45.9405 82.3069 47.6941 83.1803 50.6104C83.6066 52.0894 84.4804 53.6953 85.2473 55.2585C81.859 57.9845 79.7705 61.1537 79.0247 63.2245C77.6824 67.0702 78.7262 68.8024 80.7083 69.2039C81.6031 69.3942 82.8818 68.9715 83.8196 68.57C85.0129 68.1898 86.4195 67.5351 87.7622 66.5627C90.0427 64.8938 92.2372 62.5693 92.1093 59.4214C92.0453 57.9845 91.6619 56.5685 91.129 55.1951C94.0059 54.0125 97.714 53.3572 102.445 53.9064C112.589 55.0895 114.592 61.3649 114.208 64.0066C113.824 66.6474 111.693 68.0843 110.991 68.5279C110.287 68.9719 110.053 69.1196 110.117 69.4364C110.202 69.9013 110.543 69.8804 111.14 69.7957C111.971 69.648 116.467 67.6615 116.659 62.8017C116.979 56.5898 111.012 49.8075 100.463 49.8709ZM22.2112 76.0289C18.844 79.6629 14.156 81.0364 12.1314 79.8746C9.95792 78.6276 10.8102 73.2607 14.9443 69.4155C17.4588 67.0702 20.6981 64.8933 22.8506 63.5625C23.3405 63.2666 24.0653 62.8443 24.9391 62.316C25.0881 62.2312 25.1736 62.1891 25.1736 62.1891L25.6849 61.8719C27.1976 67.3656 25.7489 72.2045 22.2112 76.0289ZM46.7183 59.5057C45.5461 62.3373 43.0956 69.5845 41.6039 69.1831C40.3252 68.845 39.5364 63.3514 41.348 57.9211C42.2643 55.1951 44.2034 51.9412 45.3331 50.6738C47.1657 48.6452 49.1903 47.9687 49.6802 48.7934C50.2985 49.8709 47.4427 57.7308 46.7183 59.5057ZM66.9418 69.0983C66.4515 69.3521 65.983 69.5211 65.7696 69.3942C65.6206 69.3095 65.983 68.9715 65.983 68.9715C65.983 68.9715 68.519 66.2672 69.5203 65.0415C70.0961 64.3233 70.7775 63.4782 71.5023 62.5271V62.8017C71.5023 66.0348 68.348 68.2111 66.9414 69.0983H66.9418ZM82.5409 65.5699C82.1785 65.3161 82.2425 64.471 83.4572 61.8298C83.9261 60.7944 85.0339 59.0621 86.9309 57.3928C87.1439 58.0688 87.2933 58.724 87.2719 59.3367C87.2504 63.4148 84.31 64.9359 82.5409 65.5699Z"
              fill="#CD6799"/>
    </symbol>

    <!-- git -->
    <symbol id="git" viewBox="0 0 105 105">
        <path d="M103.02 47.8217L57.1758 1.98013C54.5372 -0.660044 50.2552 -0.660044 47.6134 1.98013L38.0937 11.4999L50.1699 23.5761C52.9762 22.6278 56.1943 23.264 58.4313 25.501C60.6789 27.7523 61.3106 30.9979 60.3393 33.8132L71.9775 45.4518C74.7932 44.4818 78.0421 45.1093 80.291 47.3619C83.434 50.5037 83.434 55.5958 80.291 58.7396C77.1471 61.8839 72.055 61.8839 68.9095 58.7396C66.5454 56.373 65.9613 52.901 67.1582 49.9885L56.3046 39.135L56.3034 67.697C57.0902 68.086 57.8088 68.5999 58.4313 69.2187C61.5743 72.3605 61.5743 77.453 58.4313 80.5993C55.2874 83.7419 50.1929 83.7419 47.0535 80.5993C43.9105 77.453 43.9105 72.3609 47.0535 69.2191C47.8067 68.4655 48.7019 67.8687 49.6871 67.4632V38.635C48.7004 38.2322 47.8048 37.635 47.0535 36.8791C44.6722 34.501 44.0996 31.0069 45.3198 28.0829L33.4154 16.1773L1.98105 47.6096C-0.660352 50.2522 -0.660352 54.5347 1.98105 57.1753L47.8259 103.018C50.4652 105.658 54.7464 105.658 57.3891 103.018L103.019 57.3881C105.66 54.7467 105.66 50.4618 103.019 47.8217"
              fill="#DE4C36"/>
    </symbol>

    <!-- greensock -->
    <symbol id="greensock" viewBox="0 0 120 120">
        <path d="M67.365 119.745C65.8012 119.471 64.1812 118.729 63.2625 117.908C62.6388 117.253 62.2829 116.389 62.265 115.485C62.265 114.566 62.7337 113.276 63.4762 111.99C63.9262 111.266 64.2787 110.486 64.53 109.665C64.6875 109.099 65.0175 108.18 65.2725 107.595L65.7225 106.523L65.8387 99.3563C65.8987 95.3925 66.015 91.7213 66.1125 91.1513C66.3675 89.5088 66.795 87.9075 67.3612 86.3475L67.7925 85.3125L67.1662 84.9413C66.6 84.5888 66.1312 84.1013 64.275 81.8925C61.9912 79.1963 58.9837 77.7113 54.7237 77.205C53.3362 77.07 51.93 76.9688 50.5237 76.9125C44.2725 76.62 40.6987 75.3113 37.4775 72.1463C35.0737 69.7838 33.825 67.0275 33.3187 62.9663C32.6362 57.4763 31.875 54.6638 30.4687 52.38C30.1221 51.816 29.7228 51.2861 29.2762 50.7975L28.71 50.2313L27.4612 51.0338C26.7787 51.4838 25.8187 52.05 25.35 52.305C23.7862 53.1638 22.3012 54.12 20.8762 55.155C17.3812 57.6938 13.5712 60.8775 11.4825 62.9663C10.545 63.9038 10.0575 64.3125 9.83998 64.275C8.41498 64.0613 9.50623 57.8888 11.8312 53.2388C14.8012 47.2425 19.8 41.715 25.5825 37.9838C30.33 34.9163 38.0062 30.6975 41.5575 29.2125C47.865 26.5763 56.0287 23.7225 61.6162 22.2C62.79 21.8663 63.51 21.5738 63.9975 21.2438C65.0925 20.4825 66.165 20.1113 67.395 20.0925C68.43 20.0738 68.5275 20.055 69.525 19.3875C70.6987 18.6263 71.0475 18.585 72.2212 18.9975L72.9825 19.2713L73.92 18.6263L74.8575 18L76.2037 18.0188C77.2387 18.0375 77.7075 18 78.1575 17.805C78.7237 17.55 78.7425 17.5125 78.9 16.575C79.2525 14.5425 79.29 13.5263 79.0762 12.2963C78.8025 10.6763 78.765 4.3875 79.0387 3.15375C79.3312 1.82625 79.5262 1.5525 80.5237 1.065C82.0087 0.341252 83.1225 0.127502 85.68 0.127502C88.8037 0.127502 90.3862 0.558753 91.56 1.69125C92.6137 2.7075 92.79 5.08875 92.2425 10.6763C91.9087 13.8975 91.8712 14.7975 91.9687 16.905C92.0062 18.2513 92.1037 19.5225 92.145 19.6988C92.2237 20.0325 92.3025 20.0513 93.435 20.07C94.5487 20.0888 94.7437 20.1488 95.7975 20.6963C96.8137 21.225 97.575 21.87 97.7325 22.3388C97.7512 22.4363 97.9275 22.4363 98.2387 22.3388C98.8425 22.1625 99.3712 22.3575 99.8025 22.8863C100.057 23.22 100.211 23.2763 100.8 23.2763C101.602 23.2763 101.895 23.4713 102.559 24.45C102.869 24.8893 103.295 25.2344 103.789 25.4475C104.884 25.995 106.369 27.5175 106.935 28.7288C107.812 30.525 107.989 32.6138 107.441 34.4888C107.246 35.1938 107.246 35.2125 107.655 35.895C108.514 37.3613 108.829 39.1575 108.476 40.68L108.281 41.58L108.866 42.165C111.776 45.075 111.345 49.8225 107.794 54.06C107.397 54.544 107.062 55.0756 106.796 55.6425C106.114 57.4575 105.33 58.7288 104.317 59.7825L103.282 60.8363H102.229C101.175 60.8363 99.69 60.4838 98.79 60.015C98.4187 59.82 98.4 59.82 98.4787 60.0525C98.715 60.9113 99.3 64.4063 99.495 66.3413C99.8062 69.3113 99.7087 73.6275 99.3 75.4838C99.0013 76.8586 98.5008 78.1816 97.815 79.41C97.425 80.0363 97.4062 80.1713 97.4812 80.9325C97.5975 82.005 97.3462 83.805 96.915 84.9938C96.3862 86.3813 96.1912 87.0263 96.075 87.7275C95.9775 88.3313 95.9775 88.3313 96.4087 88.3313C96.975 88.3313 97.2862 88.665 97.2862 89.3288C97.2862 89.6213 97.0312 91.2038 96.72 92.8238C95.8612 97.3763 95.8012 97.8825 95.8012 102.296C95.7825 106.849 95.7825 106.808 96.8175 107.49L99.1425 108.994C101.143 110.321 103.285 111.422 105.529 112.275C108.791 113.565 109.241 113.895 109.241 114.99C109.241 115.478 109.144 115.654 108.735 116.044C107.486 117.255 105.022 117.529 100.061 117C97.4832 116.758 94.8955 116.635 92.3062 116.629C85.47 116.531 84.4725 116.295 83.5762 114.596C83.07 113.621 83.1675 112.35 83.8687 110.261C84.18 109.343 84.4537 108.405 84.69 107.449C85.1587 105.184 84.8475 102.488 83.7525 99.4425L82.815 96.8438C81.8962 94.2075 81.39 89.3813 81.9375 88.29C82.035 88.0763 82.2112 88.035 82.68 88.0538L83.265 88.1138L83.7525 87.0975C84.1237 86.295 84.5325 85.77 85.6462 84.6563L87.0712 83.2313L86.9925 82.3125C86.9325 81.435 85.7812 77.175 85.6237 77.1938C85.5637 77.1938 85.2525 77.625 84.9 78.1688C84.0412 79.4588 82.1475 81.45 81.0712 82.1738C80.6025 82.485 80.2125 82.8563 80.2125 82.9763C80.1937 83.505 79.7437 84.54 79.1962 85.26C78.6675 85.965 78.63 86.0813 78.7087 86.7038C78.8437 87.6225 78.5512 90.57 78.2025 92.115C77.8864 93.2622 77.4541 94.3742 76.9125 95.4338C75.5662 98.2275 74.55 100.725 74.295 101.88C74.1108 102.992 73.9931 104.114 73.9425 105.24C73.8825 106.568 73.7475 107.858 73.65 108.131C73.515 108.503 73.515 108.795 73.6312 109.361C73.7287 109.77 73.7887 110.689 73.7662 111.413C73.7475 112.41 73.8262 113.055 74.1187 114.225C74.625 116.216 74.7225 117.469 74.49 118.211C74.3325 118.68 74.1787 118.856 73.65 119.111C72.4762 119.715 69.1575 120.049 67.3612 119.738L67.365 119.745ZM72.1087 118.144C72.7912 117.949 73.38 117.364 73.38 116.835C73.38 116.599 73.185 115.916 72.9487 115.313C72.48 114.161 71.6775 111.113 71.6775 110.606C71.6775 110.351 71.6962 110.333 72.0862 110.546L72.5175 110.783V110.235C72.4549 109.73 72.3431 109.233 72.1837 108.75C71.8125 107.636 71.775 107.618 69.4087 107.479L67.8075 107.4L67.2225 107.966C66.9008 108.297 66.6189 108.665 66.3825 109.061C66.1275 109.568 66.03 110.333 66.1875 110.505C66.225 110.565 66.6187 110.505 67.0462 110.408C67.3 110.332 67.5618 110.287 67.8262 110.273C67.8262 110.291 67.395 110.644 66.8512 111.015C64.5075 112.774 63.6862 113.846 63.6862 115.215C63.6862 116.64 65.0325 117.754 67.1437 118.088C68.5875 118.301 71.4 118.361 72.105 118.148L72.1087 118.144ZM103.886 115.819C104.471 115.114 104.392 114.394 103.65 113.573C103.219 113.141 102.731 112.77 102.184 112.478C101.636 112.185 101.089 111.851 100.541 111.503C99.551 110.861 98.5338 110.261 97.4925 109.706C96.5925 109.219 95.715 108.709 94.8562 108.165L94.5037 107.891V102.521C94.5037 97.23 94.485 97.1513 94.2112 97.23C92.8425 97.6013 90.5775 97.7775 87.7087 97.7175L84.6037 97.68L85.0537 98.775C85.8937 100.845 86.325 103.62 86.325 106.804C86.325 107.996 86.2462 108.424 85.9537 109.264C85.7962 109.673 85.6612 110.085 85.5225 110.494C85.4625 110.67 85.68 110.805 86.4787 111.041C87.0637 111.218 87.9225 111.394 88.4137 111.45L89.3137 111.548L89.2162 112.448C89.1187 113.464 89.235 114.536 89.49 114.87C89.6475 115.065 90.2325 115.144 92.9475 115.26C94.9987 115.358 97.2262 115.571 98.9812 115.826C100.504 116.063 102.146 116.258 102.634 116.258C103.455 116.276 103.534 116.239 103.882 115.826L103.886 115.819ZM72.6187 106.68C72.6975 106.62 72.8137 105.566 72.855 104.318C73.0125 100.823 73.1475 100.313 74.9062 96.3675C76.35 93.1463 77.115 90.1388 77.055 88.0088L77.0175 86.7375L76.47 87.2663C75.3375 88.3988 76.1175 86.6213 77.4675 85.0388C78.4837 83.8275 78.8362 83.1638 78.99 82.0913C79.0687 81.66 79.2262 81.4463 79.89 80.94C82.3735 79.0639 84.2871 76.5349 85.4175 73.635C85.6912 72.93 86.3925 70.53 86.9812 68.3025C88.0762 64.1813 88.6612 62.4038 89.19 61.6425C89.385 61.35 89.4637 61.29 89.4262 61.485C89.143 62.5324 88.9214 63.5955 88.7625 64.6688C88.605 65.625 88.3125 67.5 88.1175 68.8088C87.7462 71.4863 87.3562 73.2038 86.8275 74.5313L86.475 75.4313L87.4125 77.8538C88.3875 80.3325 88.8375 82.1325 88.9162 83.8688L88.9762 84.8438L88.215 85.0013C87.2102 85.1791 86.3136 85.7396 85.7137 86.565C85.05 87.5213 84.6787 88.305 84.855 88.4775C84.9337 88.5563 85.89 88.7325 86.985 88.8675C88.6837 89.0625 89.3287 89.0625 91.575 88.9275C92.55 88.89 93.51 88.7925 94.4662 88.6538C94.68 88.575 94.8975 88.1475 95.2462 87.0338C96.0487 84.4763 96.2025 83.5763 96.105 81.78L96.0262 80.1975L96.435 79.6688C97.3912 78.4575 98.1337 76.2713 98.445 73.71C98.8162 70.5863 98.1337 64.0425 96.8625 58.4175C96.2587 55.74 96.0037 54.1388 96.0037 52.9688V51.9338L95.0475 52.0313C91.6087 52.4025 87.45 52.305 84.9112 51.7763C83.5237 51.5025 80.0287 50.4675 79.2675 50.1338L78.6637 49.86L78.585 50.5425C78.525 50.9138 78.4687 51.285 78.39 51.675C78.2737 52.0838 78.3112 52.1813 79.035 52.8863C79.935 53.805 80.2087 54.2738 80.2087 54.8963C80.2087 55.2863 79.995 55.6013 78.9 56.7338C78.1149 57.5715 77.2438 58.3244 76.3012 58.98L75.03 59.8388L74.4825 61.7325C72.5287 68.6663 72.1575 74.9738 73.4475 79.485L73.7587 80.6175L73.1325 81.3975C70.7887 84.345 69.4012 86.5913 69.1875 87.8438C69.0625 88.4605 68.9187 89.0733 68.7562 89.6813C68.25 91.6163 67.8562 94.4475 67.6837 97.515C67.5635 100.083 67.3948 102.648 67.1775 105.21L67.08 105.971L68.055 106.264C68.6025 106.44 69.4237 106.635 69.8925 106.714C70.77 106.849 72.3937 106.811 72.645 106.676L72.6187 106.68ZM91.5825 95.9363C93.105 95.8388 94.4925 95.6025 94.7662 95.37C94.8825 95.2913 95.0212 94.8825 95.0587 94.47L95.1562 93.7275L93.945 94.0013C92.9887 94.1963 92.0325 94.3125 91.0725 94.3913C88.7662 94.4888 86.445 94.4288 84.1575 94.1963C83.3962 94.08 83.3962 94.08 83.6287 95.0738C83.8237 95.8163 83.865 95.8538 85.8562 95.9925C87.1837 96.1088 89.04 96.09 91.5787 95.9325L91.5825 95.9363ZM90.3112 92.5388C92.3025 92.3625 94.785 91.935 95.2725 91.68C95.43 91.6013 95.565 91.3088 95.625 90.975L95.8012 89.94L95.8987 89.4525L95.4112 89.55C93.2437 90 91.6012 90.135 88.32 90.135C85.1175 90.135 84.7462 90.1163 83.9062 89.8238C83.5834 89.6877 83.2397 89.6078 82.89 89.5875C82.755 89.6663 82.7325 90.78 82.8525 91.56C82.9312 92.0288 83.01 92.1075 83.4787 92.2425C84.9637 92.6513 87.465 92.7488 90.315 92.5163L90.3112 92.5388ZM54.0637 74.9213C59.0625 73.4775 65.6062 69.2363 70.9575 63.9263C72.6975 62.1863 72.9112 61.9538 73.1437 61.1738L73.455 60.1763C73.4925 60.0975 73.1812 59.9625 72.7725 59.865C71.7 59.61 70.8787 58.9875 70.8787 58.4213C70.8787 58.0875 70.6837 57.7575 70.1175 57.15C69.1987 56.115 68.9662 55.665 68.8687 54.6713L68.79 53.8688L67.695 53.0888C67.0687 52.6388 64.8825 51.4275 62.5575 50.2575C60.7872 49.3939 59.0544 48.4555 57.3637 47.445C55.41 46.1363 54.1012 44.5725 53.3587 42.72C53.2237 42.3488 53.0475 42.0375 52.9875 42.0375C52.83 42.0375 48.435 46.275 46.56 48.2663C41.9325 53.1488 38.7487 57.3863 36.735 61.3125C36.2287 62.2875 35.6812 63.4425 35.5237 63.87L35.2312 64.65L35.5837 65.9588C35.7975 66.6638 36.2475 67.815 36.6 68.4975C37.83 70.92 39.2962 72.3825 41.7187 73.575C44.3175 74.865 46.62 75.315 50.4675 75.255C52.5375 75.2363 53.145 75.1763 54.06 74.9025L54.0637 74.9213ZM14.61 57.7913C17.8912 54.8813 22.4212 51.6975 27.9712 48.3975C31.605 46.23 45.6487 39.1988 52.1137 36.3263C53.2875 35.7975 54.3412 35.31 54.4575 35.2538C54.5737 35.175 54.9075 34.335 55.2187 33.3975C56.5875 29.0625 57.27 28.2038 59.7487 27.6375C60.06 27.5588 60.1387 27.4613 60.1387 27.15C60.1387 26.5838 60.5287 25.275 60.8625 24.69C61.1175 24.24 61.1175 24.2213 60.9 24.2813C60.765 24.3188 59.9437 24.555 59.085 24.81C47.1712 28.2488 36.7612 32.8163 27.7762 38.52C18.1875 44.6138 12.66 51.9188 11.0587 60.6675L10.9425 61.3125L12.1162 60.1613C12.7425 59.5163 13.875 58.4625 14.6175 57.8175L14.61 57.7913ZM102.99 59.4525C103.946 58.965 105.431 56.7188 105.979 54.9413C106.136 54.315 106.447 53.73 106.897 53.2425C108.341 51.6413 109.534 48.7313 109.552 46.74C109.552 43.635 107.794 42.4425 105.236 43.77C104.902 43.9275 104.632 44.0438 104.591 44.0063C104.456 43.8713 105.176 43.1663 106.057 42.6188C107.209 41.8575 107.426 41.4075 107.426 39.7875C107.443 38.4781 107.054 37.1955 106.312 36.1163C105.96 35.5875 105.825 35.2388 105.881 35.0213L106.234 33.7125C106.721 31.9725 106.545 29.9813 105.784 28.7138C104.651 26.8013 103.264 25.8638 101.329 25.7063L100.196 25.6275L100.86 26.37C102.832 28.5 103.789 31.1738 103.399 33.4613C103.204 34.635 103.027 34.8675 101.895 35.3175L101.231 35.5913L101.31 36.4913C101.445 37.9575 101.194 39.03 100.256 41.0025C99.7875 42 99.435 42.8963 99.4762 42.9938C99.5925 43.3275 100.882 43.95 101.899 44.205L102.896 44.4413L102.27 44.655C101.449 44.91 101.272 45.2813 101.272 46.6275C101.272 47.8575 101.449 48.3675 102.345 49.7138C102.754 50.2988 103.027 50.9063 103.069 51.255C103.147 51.8025 103.129 51.84 102.679 51.9975C102.169 52.1407 101.644 52.2262 101.115 52.2525C99.2775 52.3688 99.1425 52.4288 98.3212 53.2088C97.5787 53.9138 97.56 53.9513 97.56 54.7313C97.56 55.8038 97.9687 57.975 98.2237 58.2675C98.5575 58.62 100.41 59.5388 101.134 59.6738C101.758 59.8305 102.418 59.7545 102.99 59.46V59.4525ZM75.9375 57.99C77.13 57.0525 78.0675 56.115 78.5925 55.3125C78.9262 54.825 78.945 54.7275 78.7875 54.315C78.5137 53.6888 76.7175 52.0688 75.72 51.5813C75.0553 51.2835 74.3522 51.0802 73.6312 50.9775L72.4012 50.82L71.64 49.8638C70.0575 47.91 69.18 46.3875 67.9275 43.4363C66.8325 40.935 65.8762 39.4725 64.3537 38.025C63.7275 37.44 63.2812 36.9525 63.3187 36.9525C63.3975 36.9525 64.14 37.3238 64.9987 37.7738C66.4237 38.535 66.6 38.595 67.245 38.4975C69.57 38.2238 71.6212 35.55 72.3637 31.8C72.5775 30.7463 73.0087 29.67 73.4587 29.025C73.4775 29.0063 74.3775 29.5913 75.4312 30.3525C78.1087 32.2463 78.6937 32.5388 80.2162 32.5988C81.2137 32.6363 81.78 32.5613 83.5762 32.13C87.405 31.1925 91.545 30.8213 94.065 31.155C95.49 31.35 97.5412 31.9763 99.0637 32.6963C100.567 33.4013 100.86 33.4388 101.347 33.0075C101.756 32.655 101.756 32.5988 101.756 31.29C101.737 29.355 101.032 27.2663 99.96 26.0175C99.4125 25.3725 97.8712 24.3188 96.345 23.5163C95.8024 23.2285 95.2624 22.936 94.725 22.6388C94.0012 22.2075 93.1837 22.2675 90.9562 22.8525C88.3762 23.5163 87.6937 23.5163 84.7462 22.755C82.245 22.1288 82.0912 22.11 79.6275 22.5C78.3187 22.695 75.0375 22.5788 73.9425 22.2863C73.395 22.1288 72.8475 21.975 72.3225 21.78C71.3662 21.4088 69.705 21.3488 68.2012 21.6225C65.2125 22.1513 62.9475 23.7713 62.1262 25.9763C61.695 27.09 61.755 27.6188 62.3212 27.9675C63.2212 28.5338 64.41 30.0788 64.41 30.6825C64.41 30.72 64.1175 30.4688 63.7837 30.1163C62.9437 29.2388 62.1825 28.845 61.2825 28.845C60.7002 28.8612 60.134 29.0397 59.6476 29.3603C59.1613 29.681 58.7742 30.1311 58.53 30.66C58.2672 31.35 58.0455 32.055 57.8662 32.7713C57.3187 34.7625 56.8312 35.82 55.7962 37.2263C54.8775 38.4975 54.7425 39.0638 55.0725 40.4888C55.8937 44.0813 57.3187 45.5288 63.2737 48.9075C66.3975 50.685 67.9987 51.6825 69.1725 52.56C70.0725 53.2238 70.0912 53.265 70.0125 53.7713C69.8362 54.945 70.5787 56.2125 72.045 57.2475C72.4162 57.5025 72.6487 57.7763 72.6487 57.9713C72.6487 58.3238 73.6462 58.8113 74.3662 58.8113C74.775 58.8113 75.09 58.635 75.93 57.99H75.9375ZM100.02 51.405C102.285 51.4838 102.401 51.3075 101.194 49.9013C99.9225 48.435 99.5737 47.2463 100.042 45.9375L100.237 45.4313L99.435 45.0413C99.1612 44.9063 98.8875 44.7675 98.6137 44.67C98.4787 45.1988 98.34 45.705 98.2237 46.2338C97.9312 47.4263 97.5787 50.5125 97.56 51.8213C97.56 51.9375 97.755 51.9 98.0887 51.6863C98.5575 51.4125 98.7937 51.375 100.024 51.4125L100.02 51.405ZM92.4225 51.2888C93.7912 51.21 95.1975 51.1125 95.5687 51.0525L96.2512 50.955L96.33 48.7088C96.4462 45.5063 96.915 43.6125 98.3025 40.5825C99.2775 38.4338 99.7087 36.5588 99.495 35.1525C99.4162 34.5488 99.3787 34.5075 98.5575 34.155C97.0537 33.5579 95.4876 33.1315 93.8887 32.8838C92.3475 32.67 87.8137 32.7863 86.115 33.12C85.41 33.2363 84.1237 33.51 83.265 33.7238C81.135 34.2113 80.0025 34.155 78.3825 33.45C76.7812 32.745 75.765 32.1038 74.8087 31.2038C74.0475 30.4988 73.9687 30.4613 73.7737 30.6975C73.6162 30.8738 73.5375 31.4025 73.4812 32.535C73.4212 34.275 73.1475 35.19 72.3862 36.42C72.2171 36.6731 72.0727 36.9418 71.955 37.2225C71.955 37.2825 72.54 37.965 73.2637 38.7075C75.765 41.3063 76.995 41.97 78.9675 41.8313C79.6125 41.7713 80.0625 41.7938 80.0625 41.8688C80.0625 42.0263 78.7912 43.02 78.2662 43.2938C78.0112 43.4288 77.955 43.5675 77.9925 43.86L78.3037 45.9113C78.48 47.085 78.615 47.6288 78.7912 47.7863C79.26 48.1763 81.6825 49.4288 83.205 50.0513C85.1962 50.8538 86.2912 51.1463 87.8137 51.2813C89.6887 51.4388 89.7262 51.4388 92.4225 51.2813V51.2888ZM76.2712 49.14C76.3087 49.08 76.1737 47.9475 75.9187 46.6388C75.6075 44.8613 75.4312 44.2163 75.2362 44.04C75.1012 43.9238 74.3775 43.4138 73.6537 42.8888C72.7028 42.205 71.8018 41.4543 70.9575 40.6425L69.6112 39.315L68.8875 39.6863L68.1262 40.095C68.1903 40.4001 68.295 40.6952 68.4375 40.9725C68.6512 41.4413 69.0825 42.5925 69.3937 43.53C70.215 45.9713 70.86 47.145 72.48 49.2713L73.0837 50.0738L74.235 50.25C74.88 50.3475 75.525 50.4863 75.7012 50.5425C75.975 50.6588 76.0125 50.6025 76.0912 49.9763C76.1287 49.7025 76.1887 49.41 76.2675 49.1363L76.2712 49.14ZM101.017 24.8438C102.015 24.7463 102.191 24.6075 101.76 24.1613C101.486 23.8875 100.86 23.8688 100.354 24.1013C100.02 24.2588 99.945 24.2175 99.4162 23.6513C98.8687 23.0475 98.8312 23.025 98.145 23.1038C97.5187 23.1825 97.4212 23.1638 97.3425 22.9088C97.0986 22.4899 96.7955 22.1084 96.4425 21.7763C95.9989 21.2722 95.4443 20.8781 94.8225 20.625C93.6112 20.1563 92.9287 20.2163 91.7737 20.8613C88.4325 22.6763 88.5712 22.6575 85.3462 21.8363C82.3387 21.075 80.0925 20.295 79.3687 19.8038C78.765 19.395 77.475 18.945 76.3987 18.8063C75.5962 18.69 75.09 18.8663 74.3287 19.4888L73.92 19.8225L74.2912 20.4675C74.7975 21.3675 74.7412 21.4238 73.98 20.76C73.1587 20.0775 72.1837 19.6088 71.5575 19.5863C71.1075 19.5863 69.78 20.1713 69.6225 20.4263C69.5625 20.505 69.975 20.6025 70.5225 20.64C71.0887 20.7 71.8687 20.895 72.3975 21.1088C73.7662 21.6938 74.4675 21.8888 75.7162 22.0088C77.085 22.1438 79.5637 21.99 79.8562 21.7538C80.0137 21.6188 80.4412 21.5963 81.3412 21.675C82.5337 21.7538 83.0212 21.87 85.8525 22.6313C87.495 23.0813 88.6462 23.04 90.6 22.515C91.5 22.26 92.6325 22.0088 93.1012 21.9488C93.9037 21.87 94.0575 21.9113 95.31 22.4775C97.3012 23.3775 98.3587 23.9438 98.9437 24.4688C99.5287 24.975 99.6075 24.975 101.014 24.8588L101.017 24.8438ZM89.8837 21.4275L91.0762 20.8013L91.0387 19.59C91.02 18.75 90.9787 17.9288 90.9412 17.1113L90.8437 15.8625L89.6512 16.7813C88.9462 17.3288 88.2637 17.7375 87.9712 17.7975C87.1125 17.955 82.875 17.7975 82.4812 17.5838C81.9567 17.1963 81.4661 16.7647 81.015 16.2938L79.92 15.18L79.9012 15.8438C79.9012 16.1963 79.8637 16.8 79.785 17.1713C79.6875 17.8763 79.6875 17.895 80.4487 18.8513C80.8575 19.38 81.1912 19.8488 81.1912 19.905C81.1912 20.2763 86.835 22.035 88.1062 22.0538C88.515 22.0538 89.025 21.8775 89.8837 21.4275ZM87.6187 16.9913C89.025 16.7175 89.7075 15.7013 90.2362 13.125C90.7837 10.35 91.0575 5.99625 90.8025 4.14C90.5662 2.46 88.6912 1.7175 85.1175 1.83375C82.89 1.9125 81.9712 2.12625 81.21 2.77125C80.7412 3.16125 80.7412 3.2025 80.5275 5.055C80.1375 8.61 80.7225 13.6688 81.7387 15.5625C82.2262 16.4813 82.6575 16.8113 83.5537 16.9688C84.57 17.145 86.7375 17.145 87.615 16.9875L87.6187 16.9913Z"
              fill="currentColor"/>
    </symbol>

    <!-- vscode -->
    <symbol id="vscode" viewBox="0 0 112 112">
        <path d="M101.535 17.605L81.3541 7.88899C80.2144 7.33948 78.932 7.15814 77.6847 7.37011C76.4373 7.58208 75.2868 8.17686 74.3926 9.07199L8.3301 69.3C7.52857 70.0273 7.04878 71.0432 6.99627 72.1243C6.94376 73.2053 7.32283 74.2629 8.0501 75.0645C8.1376 75.159 8.2251 75.25 8.3196 75.334L13.7131 80.234C14.4179 80.8754 15.325 81.2497 16.2771 81.2919C17.2291 81.3341 18.1658 81.0416 18.9246 80.465L98.4971 20.125C99.0981 19.6689 99.8145 19.3897 100.566 19.3186C101.317 19.2476 102.073 19.3877 102.749 19.7231C103.425 20.0585 103.993 20.5758 104.391 21.217C104.789 21.8581 105 22.5975 105 23.352V23.1175C105 21.9656 104.675 20.8372 104.062 19.862C103.449 18.8868 102.573 18.1045 101.535 17.605Z"
              fill="#0065A9"/>
        <path d="M101.535 94.395L81.3541 104.115C80.2141 104.662 78.9321 104.843 77.6851 104.631C76.4381 104.419 75.2876 103.825 74.3926 102.932L8.3301 42.7C7.52857 41.9727 7.04878 40.9568 6.99627 39.8758C6.94376 38.7947 7.32283 37.7371 8.0501 36.9355C8.1376 36.841 8.2251 36.75 8.3196 36.666L13.7131 31.766C14.4186 31.1219 15.3278 30.7459 16.2822 30.7037C17.2366 30.6615 18.1755 30.9557 18.9351 31.535L98.4971 91.875C99.0981 92.3311 99.8145 92.6104 100.566 92.6814C101.317 92.7524 102.073 92.6123 102.749 92.2769C103.425 91.9415 103.993 91.4242 104.391 90.783C104.789 90.1419 105 89.4025 105 88.648V88.9C104.996 90.0488 104.669 91.1733 104.057 92.1451C103.444 93.1168 102.57 93.8965 101.535 94.395Z"
              fill="#007ACC"/>
        <path d="M81.3539 104.114C80.2139 104.662 78.9319 104.843 77.6849 104.631C76.4379 104.419 75.2874 103.825 74.3924 102.931C74.895 103.428 75.5329 103.764 76.226 103.899C76.9192 104.034 77.6368 103.962 78.2889 103.691C78.941 103.42 79.4987 102.963 79.892 102.376C80.2853 101.79 80.4968 101.1 80.4999 100.394V11.606C80.5005 10.8965 80.2905 10.2028 79.8965 9.61274C79.5025 9.02271 78.9423 8.56288 78.2867 8.29152C77.6312 8.02016 76.9098 7.94946 76.2141 8.0884C75.5183 8.22734 74.8795 8.56965 74.3784 9.07197C75.2728 8.17717 76.423 7.58235 77.6702 7.3698C78.9173 7.15724 80.1997 7.33744 81.3399 7.88547L101.517 17.5875C102.559 18.0845 103.438 18.8657 104.054 19.8411C104.67 20.8165 104.998 21.9463 105 23.1V88.9C105 90.0528 104.675 91.1822 104.061 92.1581C103.447 93.134 102.571 93.9167 101.531 94.416L81.3539 104.114Z"
              fill="#1F9CF0"/>
    </symbol>

    <!-- githubSkill -->
    <svg id="githubSk" viewBox="0 0 88 86">
        <path fill-rule="evenodd" clip-rule="evenodd"
              d="M44 0C19.69 0 0 19.69 0 44C0 63.47 12.595 79.915 30.085 85.745C32.285 86.13 33.11 84.81 33.11 83.655C33.11 82.61 33.055 79.145 33.055 75.46C22 77.495 19.14 72.765 18.26 70.29C17.765 69.025 15.62 65.12 13.75 64.075C12.21 63.25 10.01 61.215 13.695 61.16C17.16 61.105 19.635 64.35 20.46 65.67C24.42 72.325 30.745 70.455 33.275 69.3C33.66 66.44 34.815 64.515 36.08 63.415C26.29 62.315 16.06 58.52 16.06 41.69C16.06 36.905 17.765 32.945 20.57 29.865C20.13 28.765 18.59 24.255 21.01 18.205C21.01 18.205 24.695 17.05 33.11 22.715C36.63 21.725 40.37 21.23 44.11 21.23C47.85 21.23 51.59 21.725 55.11 22.715C63.525 16.995 67.21 18.205 67.21 18.205C69.63 24.255 68.09 28.765 67.65 29.865C70.455 32.945 72.16 36.85 72.16 41.69C72.16 58.575 61.875 62.315 52.085 63.415C53.68 64.79 55.055 67.43 55.055 71.555C55.055 77.44 55 82.17 55 83.655C55 84.81 55.825 86.185 58.025 85.745C66.7597 82.796 74.3497 77.1822 79.7268 69.6937C85.1039 62.2052 87.9974 53.219 88 44C88 19.69 68.31 0 44 0Z"
              fill="currentColor"/>
    </svg>


    <!-- Link -->
    <symbol id="link" viewBox="0 0 17 17">
        <path d="M9.62041 7.04692C8.93782 6.36461 8.0122 5.98132 7.04708 5.98132C6.08195 5.98132 5.15633 6.36461 4.47374 7.04692L1.89958 9.62025C1.21698 10.3029 0.833496 11.2287 0.833496 12.194C0.833496 13.1593 1.21698 14.0852 1.89958 14.7678C2.58218 15.4504 3.50798 15.8338 4.47333 15.8338C5.43867 15.8338 6.36448 15.4504 7.04708 14.7678L8.33374 13.4811"
              stroke="currentColor" fill="none" stroke-width="1" stroke-linecap="round"
              stroke-linejoin="round"/>
        <path d="M7.04688 9.62026C7.72946 10.3026 8.65508 10.6859 9.62021 10.6859C10.5853 10.6859 11.511 10.3026 12.1935 9.62026L14.7677 7.04693C15.4503 6.36432 15.8338 5.43852 15.8338 4.47318C15.8338 3.50783 15.4503 2.58203 14.7677 1.89943C14.0851 1.21682 13.1593 0.833344 12.194 0.833344C11.2286 0.833344 10.3028 1.21682 9.62021 1.89943L8.33354 3.18609"
              stroke="currentColor" fill="none" stroke-width="1" stroke-linecap="round"
              stroke-linejoin="round"/>
    </symbol>

    <!-- GitHub_inCard -->
    <symbol id="hub" viewBox="0 0 20 20" fill="none">
        <path fill-rule="evenodd" clip-rule="evenodd"
              d="M10 0C4.475 0 0 4.475 0 10C0 14.425 2.8625 18.1625 6.8375 19.4875C7.3375 19.575 7.525 19.275 7.525 19.0125C7.525 18.775 7.5125 17.9875 7.5125 17.15C5 17.6125 4.35 16.5375 4.15 15.975C4.0375 15.6875 3.55 14.8 3.125 14.5625C2.775 14.375 2.275 13.9125 3.1125 13.9C3.9 13.8875 4.4625 14.625 4.65 14.925C5.55 16.4375 6.9875 16.0125 7.5625 15.75C7.65 15.1 7.9125 14.6625 8.2 14.4125C5.975 14.1625 3.65 13.3 3.65 9.475C3.65 8.3875 4.0375 7.4875 4.675 6.7875C4.575 6.5375 4.225 5.5125 4.775 4.1375C4.775 4.1375 5.6125 3.875 7.525 5.1625C8.325 4.9375 9.175 4.825 10.025 4.825C10.875 4.825 11.725 4.9375 12.525 5.1625C14.4375 3.8625 15.275 4.1375 15.275 4.1375C15.825 5.5125 15.475 6.5375 15.375 6.7875C16.0125 7.4875 16.4 8.375 16.4 9.475C16.4 13.3125 14.0625 14.1625 11.8375 14.4125C12.2 14.725 12.5125 15.325 12.5125 16.2625C12.5125 17.6 12.5 18.675 12.5 19.0125C12.5 19.275 12.6875 19.5875 13.1875 19.4875C15.1726 18.8173 16.8976 17.5414 18.1197 15.8395C19.3418 14.1375 19.9994 12.0952 20 10C20 4.475 15.525 0 10 0Z"
              fill="currentColor"/>
    </symbol>

    <!-- building -->
    <symbol id="building" viewBox="0 0 7 9" fill="currentColor">
        <path d="M0 0V9H3V7.25H4V9H7V0H0ZM1 1H2V2H1V1ZM3 1H4V2H3V1ZM5 1H6V2H5V1ZM1 3H2V4H1V3ZM3 3H4V4H3V3ZM5 3H6V4H5V3ZM1 5H2V6H1V5ZM3 5H4V6H3V5ZM5 5H6V6H5V5ZM1 7H2V8H1V7ZM5 7H6V8H5V7Z"
              fill="currentColor"/>
    </symbol>

    <!-- location -->
    <symbol id="location" viewBox="0 0 24 24" fill="none">
        <path d="M5.7 15C4.03377 15.6353 3 16.5205 3 17.4997C3 19.4329 7.02944 21 12 21C16.9706 21 21 19.4329 21 17.4997C21 16.5205 19.9662 15.6353 18.3 15M12 9H12.01M18 9C18 13.0637 13.5 15 12 18C10.5 15 6 13.0637 6 9C6 5.68629 8.68629 3 12 3C15.3137 3 18 5.68629 18 9ZM13 9C13 9.55228 12.5523 10 12 10C11.4477 10 11 9.55228 11 9C11 8.44772 11.4477 8 12 8C12.5523 8 13 8.44772 13 9Z"
              stroke="currentColor" stroke-width="2" stroke-linecap="round" stroke-linejoin="round"/>
    </symbol>

    <!-- calendar -->
    <symbol id="calendar" viewBox="0 0 24 24" fill="none">
        <path d="M3 9H21M7 3V5M17 3V5M6 13H8M6 17H8M11 13H13M11 17H13M16 13H18M16 17H18M6.2 21H17.8C18.9201 21 19.4802 21 19.908 20.782C20.2843 20.5903 20.5903 20.2843 20.782 19.908C21 19.4802 21 18.9201 21 17.8V8.2C21 7.07989 21 6.51984 20.782 6.09202C20.5903 5.71569 20.2843 5.40973 19.908 5.21799C19.4802 5 18.9201 5 17.8 5H6.2C5.0799 5 4.51984 5 4.09202 5.21799C3.71569 5.40973 3.40973 5.71569 3.21799 6.09202C3 6.51984 3 7.07989 3 8.2V17.8C3 18.9201 3 19.4802 3.21799 19.908C3.40973 20.2843 3.71569 20.5903 4.09202 20.782C4.51984 21 5.07989 21 6.2 21Z"
              stroke="currentColor" stroke-width="2" stroke-linecap="round" stroke-linejoin="round"/>
    </symbol>


    <!-- User -->
    <symbol id="user" viewBox="0 0 32 32">
        <g transform="translate(0.000000,32.000000) scale(0.100000,-0.100000)"
           fill="url(#grad)">
            <path d="M105 295 c-30 -30 -34 -86 -7 -112 17 -17 16 -19 -18 -38 -40 -24 -83 -94 -77 -127 4 -25 11 -15 21 34 8 38 61 86 101 94 77 14 157 -30 171 -94 10 -48 17 -59 21 -39 8 31 -39 110 -77 132 -34 19 -35 21 -18 38 46 44 3 137 -62 137 -19 0 -40 -9 -55 -25z m105 -15 c23 -23 25 -39 8 -75 -29 -64 -128 -33 -128 40 0 25 38 55 70 55 17 0 39 -9 50 -20z"/>
        </g>
    </symbol>

    <!-- myLocation -->
    <symbol id="myLocation" viewBox="0 0 32 32">
        <g transform="translate(0.000000,32.000000) scale(0.100000,-0.100000)"
           fill="url(#grad)">
            <path d="M114 311 c-12 -5 -31 -22 -44 -38 -34 -44 -24 -102 33 -191 26 -40 51 -72 56 -72 27 0 111 155 111 204 0 71 -88 126 -156 97z m96 -18 c60 -35 65 -95 14 -179 -49 -82 -60 -92 -78 -74 -31 31 -86 135 -86 161 0 40 17 73 48 92 35 21 67 21 102 0z"/>
            <path d="M120 229 c-9 -16 -8 -26 5 -45 20 -31 50 -31 70 0 23 34 5 66 -35 66 -19 0 -33 -7 -40 -21z m68 -20 c3 -28 -16 -43 -43 -33 -15 6 -21 45 -8 58 16 16 48 1 51 -25z"/>
        </g>
    </symbol>

    <!-- Email -->
    <symbol id="email" viewBox="0 0 32 32">
        <rect x="2" y="6" width="28" height="20" rx="2" fill="none" stroke="url(#grad)" stroke-width="1.5"/>
        <polyline points="2,8 16,18 30,8" fill="none" stroke="url(#grad)" stroke-width="1.5"
                  stroke-linecap="round"
                  stroke-linejoin="round"/>
    </symbol>

    <!-- Clock -->
    <symbol id="clock" viewBox="0 0 32 32">
        <circle cx="16" cy="16" r="13" stroke="url(#grad)" stroke-width="1.5" fill="none"/>
        <polyline points="16,8 16,16 21,19" stroke="url(#grad)" stroke-width="1.5" fill="none"
                  stroke-linecap="round"
                  stroke-linejoin="round"/>
    </symbol>

    <!-- Squares -->
    <symbol id="squares" viewBox="0 0 197.227 197.227" fill="currentColor">
        <path d="M0,82.034h77.056V4.967H0V82.034z M68.728,13.299V73.71h-60.4V13.299H68.728z"/>
        <path d="M120.178,4.967v77.063h77.049V4.967H120.178z M128.502,73.71V13.299h60.404V73.71H128.502z"/>
        <path d="M0,192.259h77.056V115.2H0V192.259z M68.728,123.52v60.411h-60.4V123.52H68.728z"/>
        <path d="M120.178,192.259h77.049V115.2h-77.049V192.259z M188.906,123.52v60.411h-60.404V123.52H188.906z"/>
    </symbol>

    <!-- ArrowDown -->
    <symbol id="arrow_down" viewBox="0 0 32 32" fill="currentColor">
        <path d="M0.256 8.606c0-0.269 0.106-0.544 0.313-0.75 0.412-0.412 1.087-0.412 1.5 0l14.119 14.119 13.913-13.912c0.413-0.412 1.087-0.412 1.5 0s0.413 1.088 0 1.5l-14.663 14.669c-0.413 0.413-1.088 0.413-1.5 0l-14.869-14.869c-0.213-0.213-0.313-0.481-0.313-0.756z"/>
    </symbol>

    <!-- filter -->
    <symbol id="filter" fill="currentColor" viewBox="0 0 32 32">
        <path d="M30.646 1.62c-0.133-0.223-0.372-0.37-0.646-0.37h-28c-0.414 0-0.75 0.336-0.75 0.75 0 0.134 0.035 0.259 0.096 0.368l-0.002-0.004 9.905 17.831v5.805c0 0.292 0.167 0.545 0.411 0.668l0.004 0.002 7.999 4c0.096 0.050 0.211 0.080 0.332 0.080 0.002 0 0.003 0 0.005 0h-0c0.001 0 0.001 0 0.002 0 0.413 0 0.748-0.335 0.748-0.748 0-0.001 0-0.001 0-0.002v0-9.805l9.906-17.831c0.059-0.105 0.094-0.23 0.094-0.364 0-0.14-0.039-0.272-0.106-0.384l0.002 0.003zM19.344 19.637c-0.059 0.105-0.093 0.23-0.094 0.363v8.787l-6.5-3.25v-5.537c0-0 0-0 0-0.001 0-0.133-0.035-0.258-0.097-0.366l0.002 0.004-9.381-16.887h25.45z"/>
    </symbol>

    <!-- EmailBig -->
    <symbol id="emailBig" viewBox="-3.2 -3.2 38.40 38.40" fill="none">
        <path stroke="currentColor" stroke-linejoin="round" stroke-width="2"
              d="M3 9a2 2 0 012-2h22a2 2 0 012 2v14a2 2 0 01-2 2H5a2 2 0 01-2-2V9z"/>
        <path stroke="currentColor" stroke-linecap="round" stroke-linejoin="round" stroke-width="2"
              d="M3 9l11.862 8.212a2 2 0 002.276 0L29 9"/>
    </symbol>

    <!-- User2 -->
    <symbol id="user2" viewBox="0 0 32 32">
        <g transform="translate(0.000000,32.000000) scale(0.100000,-0.100000)"
           fill="currentColor">
            <path d="M105 295 c-30 -30 -34 -86 -7 -112 17 -17 16 -19 -18 -38 -40 -24 -83 -94 -77 -127 4 -25 11 -15 21 34 8 38 61 86 101 94 77 14 157 -30 171 -94 10 -48 17 -59 21 -39 8 31 -39 110 -77 132 -34 19 -35 21 -18 38 46 44 3 137 -62 137 -19 0 -40 -9 -55 -25z m105 -15 c23 -23 25 -39 8 -75 -29 -64 -128 -33 -128 40 0 25 38 55 70 55 17 0 39 -9 50 -20z"/>
        </g>
    </symbol>

    <!-- mail_logo -->
    <symbol id="mail_logo" viewBox="0 0 24 24" fill="none">
        <path d="M16 12C16 14.2091 14.2091 16 12 16C9.79086 16 8 14.2091 8 12C8 9.79086 9.79086 8 12 8C14.2091 8 16 9.79086 16 12ZM16 12V13.5C16 14.8807 17.1193 16 18.5 16V16C19.8807 16 21 14.8807 21 13.5V12C21 7.02944 16.9706 3 12 3C7.02944 3 3 7.02944 3 12C3 16.9706 7.02944 21 12 21H16"
              stroke="currentColor" stroke-width="1" stroke-linecap="round" stroke-linejoin="round"/>
    </symbol>

    <!-- Airplane -->
    <symbol id="airplane" fill="currentColor" viewBox="0 0 491.022 491.022">
        <path d="M490.916,13.991c-0.213-1.173-0.64-2.347-1.28-3.307c-0.107-0.213-0.213-0.533-0.32-0.747 c-0.107-0.213-0.32-0.32-0.533-0.533c-0.427-0.533-0.96-1.067-1.493-1.493c-0.427-0.32-0.853-0.64-1.28-0.96 c-0.213-0.107-0.32-0.32-0.533-0.427c-0.32-0.107-0.747-0.32-1.173-0.427c-0.533-0.213-1.067-0.427-1.6-0.533 c-0.64-0.107-1.28-0.213-1.92-0.213c-0.533,0-1.067,0-1.6,0c-0.747,0.107-1.493,0.32-2.133,0.533 c-0.32,0.107-0.747,0.107-1.067,0.213L6.436,209.085c-5.44,2.347-7.893,8.64-5.547,14.08c1.067,2.347,2.88,4.373,5.227,5.44 l175.36,82.453v163.947c0,5.867,4.8,10.667,10.667,10.667c3.733,0,7.147-1.92,9.067-5.12l74.133-120.533l114.56,60.373 c5.227,2.773,11.627,0.747,14.4-4.48c0.427-0.853,0.747-1.813,0.96-2.667l85.547-394.987c0-0.213,0-0.427,0-0.64 c0.107-0.64,0.107-1.173,0.213-1.707C491.022,15.271,491.022,14.631,490.916,13.991z M190.009,291.324L36.836,219.218 L433.209,48.124L190.009,291.324z M202.809,437.138V321.831l53.653,28.267L202.809,437.138z M387.449,394.898l-100.8-53.013 l-18.133-11.2l-0.747,1.28l-57.707-30.4L462.116,49.298L387.449,394.898z"/>
    </symbol>

    <!-- Pen -->
    <symbol id="pen" fill="currentColor" viewBox="0 0 32 32">
        <path d="M7.744 19.189l-1.656 5.797c-0.019 0.062-0.029 0.133-0.029 0.207 0 0.413 0.335 0.748 0.748 0.748 0.001 0 0.001 0 0.002 0h-0c0.001 0 0.002 0 0.003 0 0.075 0 0.146-0.011 0.214-0.033l-0.005 0.001 5.622-1.656c0.124-0.037 0.23-0.101 0.315-0.186l-0 0 17.569-17.394c0.137-0.135 0.223-0.323 0.223-0.531v-0c0-0 0-0.001 0-0.001 0-0.207-0.084-0.395-0.219-0.531l-4.141-4.142c-0.136-0.136-0.324-0.22-0.531-0.22s-0.395 0.084-0.531 0.22v0l-17.394 17.394c-0.088 0.088-0.153 0.198-0.189 0.321l-0.001 0.005zM25.859 3.061l3.078 3.078-3.078 3.047-3.079-3.047zM21.72 7.2l3.073 3.041-12.756 12.628-4.133 1.217 1.229-4.299zM30 13.25c-0.414 0-0.75 0.336-0.75 0.75v0 15.25h-26.5v-26.5h15.25c0.414 0 0.75-0.336 0.75-0.75s-0.336-0.75-0.75-0.75v0h-16c-0.414 0-0.75 0.336-0.75 0.75v0 28c0 0.414 0.336 0.75 0.75 0.75h28c0.414-0 0.75-0.336 0.75-0.75v0-16c-0-0.414-0.336-0.75-0.75-0.75v0z"/>
    </symbol>

    <!-- Shield -->
    <symbol id="shield" viewBox="0 0 24 24" fill="none">
        <path fill-rule="evenodd" clip-rule="evenodd"
              d="M9.25 9C9.25 7.48122 10.4812 6.25 12 6.25C13.5188 6.25 14.75 7.48122 14.75 9C14.75 10.5188 13.5188 11.75 12 11.75C10.4812 11.75 9.25 10.5188 9.25 9ZM12 7.75C11.3096 7.75 10.75 8.30964 10.75 9C10.75 9.69036 11.3096 10.25 12 10.25C12.6904 10.25 13.25 9.69036 13.25 9C13.25 8.30964 12.6904 7.75 12 7.75Z"
              fill="currentColor"/>
        <path fill-rule="evenodd" clip-rule="evenodd"
              d="M12 12.25C10.8042 12.25 9.68461 12.4907 8.83616 12.915C8.03258 13.3168 7.25 14.0106 7.25 15L7.24987 15.0625C7.24834 15.5728 7.24576 16.4322 8.06023 17.0218C8.43818 17.2953 8.9369 17.4698 9.55469 17.581C10.1782 17.6932 10.9772 17.75 12 17.75C13.0228 17.75 13.8218 17.6932 14.4453 17.581C15.0631 17.4698 15.5618 17.2953 15.9398 17.0218C16.7542 16.4322 16.7517 15.5728 16.7501 15.0625L16.75 15C16.75 14.0106 15.9674 13.3168 15.1638 12.915C14.3154 12.4907 13.1958 12.25 12 12.25ZM8.75 15C8.75 14.8848 8.86285 14.5787 9.50698 14.2566C10.1063 13.957 10.9866 13.75 12 13.75C13.0134 13.75 13.8937 13.957 14.493 14.2566C15.1371 14.5787 15.25 14.8848 15.25 15C15.25 15.6045 15.2115 15.6972 15.0602 15.8067C14.9382 15.895 14.6869 16.0134 14.1797 16.1047C13.6782 16.1949 12.9772 16.25 12 16.25C11.0228 16.25 10.3218 16.1949 9.82031 16.1047C9.3131 16.0134 9.06182 15.895 8.93977 15.8067C8.78849 15.6972 8.75 15.6045 8.75 15Z"
              fill="currentColor"/>
        <path fill-rule="evenodd" clip-rule="evenodd"
              d="M8.72339 2.05112C10.1673 1.55658 11.0625 1.25 12 1.25C12.9375 1.25 13.8327 1.55658 15.2766 2.05112L16.004 2.30013C17.4854 2.8072 18.6286 3.19852 19.447 3.53099C19.8592 3.69846 20.2136 3.86067 20.499 4.02641C20.7737 4.1859 21.0492 4.38484 21.2364 4.65154C21.4214 4.91516 21.5171 5.23924 21.5772 5.55122C21.6397 5.87556 21.6774 6.26464 21.7017 6.71136C21.75 7.5984 21.75 8.81361 21.75 10.3898V11.9914C21.75 18.0924 17.142 21.0175 14.4017 22.2146L14.3746 22.2264C14.0348 22.3749 13.7154 22.5144 13.3484 22.6084C12.9609 22.7076 12.5493 22.75 12 22.75C11.4507 22.75 11.0391 22.7076 10.6516 22.6084C10.2846 22.5144 9.96523 22.3749 9.62543 22.2264L9.59833 22.2146C6.85803 21.0175 2.25 18.0924 2.25 11.9914V10.3899C2.25 8.81378 2.25 7.59836 2.2983 6.71136C2.32262 6.26464 2.36031 5.87556 2.42281 5.55122C2.48293 5.23924 2.5786 4.91516 2.76363 4.65154C2.95082 4.38484 3.22634 4.1859 3.50098 4.02641C3.78637 3.86067 4.14078 3.69846 4.55303 3.53099C5.3714 3.19852 6.51462 2.8072 7.99595 2.30014L8.72339 2.05112ZM12 2.75C11.3423 2.75 10.6951 2.96164 9.08062 3.5143L8.5078 3.71037C6.99521 4.22814 5.8921 4.60605 5.11759 4.92069C4.731 5.07774 4.4509 5.20935 4.25429 5.32353C4.15722 5.3799 4.09034 5.42642 4.04567 5.46273C4.0078 5.49351 3.99336 5.51095 3.99129 5.51349C3.98936 5.51663 3.97693 5.5374 3.95943 5.58654C3.93944 5.64265 3.91729 5.72309 3.89571 5.83506C3.85204 6.06169 3.81894 6.37301 3.79608 6.79292C3.75028 7.63411 3.75 8.80833 3.75 10.4167V11.9914C3.75 17.1665 7.6199 19.7135 10.1988 20.84C10.5703 21.0023 10.7848 21.0941 11.0236 21.1552C11.2517 21.2136 11.53 21.25 12 21.25C12.47 21.25 12.7483 21.2136 12.9764 21.1552C13.2152 21.0941 13.4297 21.0023 13.8012 20.84C16.3801 19.7135 20.25 17.1665 20.25 11.9914V10.4167C20.25 8.80833 20.2497 7.63411 20.2039 6.79292C20.1811 6.37301 20.148 6.06169 20.1043 5.83506C20.0827 5.72309 20.0606 5.64265 20.0406 5.58654C20.0231 5.53737 20.0106 5.5166 20.0087 5.51348C20.0066 5.51092 19.9922 5.49349 19.9543 5.46273C19.9097 5.42642 19.8428 5.3799 19.7457 5.32353C19.5491 5.20935 19.269 5.07774 18.8824 4.92069C18.1079 4.60605 17.0048 4.22814 15.4922 3.71037L14.9194 3.5143C13.3049 2.96164 12.6577 2.75 12 2.75Z"
              fill="currentColor"/>
    </symbol>

    <!-- Lightning -->
    <symbol id="lightning" viewBox="0 0 24 24" fill="none">
        <path d="M13 2L4.09344 12.6879C3.74463 13.1064 3.57023 13.3157 3.56756 13.4925C3.56524 13.6461 3.63372 13.7923 3.75324 13.8889C3.89073 14 4.16316 14 4.70802 14H12L11 22L19.9065 11.3121C20.2553 10.8936 20.4297 10.6843 20.4324 10.5075C20.4347 10.3539 20.3663 10.2077 20.2467 10.1111C20.1092 10 19.8368 10 19.292 10H12L13 2Z"
              stroke="currentColor" stroke-width="2" stroke-linecap="round" stroke-linejoin="round"/>
    </symbol>

    <!-- Done -->
    <symbol id="done" viewBox="0 0 24 24" fill="none">
        <path fill-rule="evenodd" clip-rule="evenodd"
              d="M19.7071 6.29289C20.0976 6.68342 20.0976 7.31658 19.7071 7.70711L10.4142 17C9.63316 17.7811 8.36683 17.781 7.58579 17L3.29289 12.7071C2.90237 12.3166 2.90237 11.6834 3.29289 11.2929C3.68342 10.9024 4.31658 10.9024 4.70711 11.2929L9 15.5858L18.2929 6.29289C18.6834 5.90237 19.3166 5.90237 19.7071 6.29289Z"
              fill="currentColor"/>
    </symbol>

    <!-- Lock -->
    <symbol id="lock" viewBox="0 0 24 24" fill="none">
        <path d="M12 14.5V16.5M7 10.0288C7.47142 10 8.05259 10 8.8 10H15.2C15.9474 10 16.5286 10 17 10.0288M7 10.0288C6.41168 10.0647 5.99429 10.1455 5.63803 10.327C5.07354 10.6146 4.6146 11.0735 4.32698 11.638C4 12.2798 4 13.1198 4 14.8V16.2C4 17.8802 4 18.7202 4.32698 19.362C4.6146 19.9265 5.07354 20.3854 5.63803 20.673C6.27976 21 7.11984 21 8.8 21H15.2C16.8802 21 17.7202 21 18.362 20.673C18.9265 20.3854 19.3854 19.9265 19.673 19.362C20 18.7202 20 17.8802 20 16.2V14.8C20 13.1198 20 12.2798 19.673 11.638C19.3854 11.0735 18.9265 10.6146 18.362 10.327C18.0057 10.1455 17.5883 10.0647 17 10.0288M7 10.0288V8C7 5.23858 9.23858 3 12 3C14.7614 3 17 5.23858 17 8V10.0288"
              stroke="currentColor" stroke-width="2" stroke-linecap="round" stroke-linejoin="round"/>
    </symbol>
</svg>