<svg xmlns="http://www.w3.org/2000/svg" width="1672" height="1672" viewBox="0 0 1254 1254"><g transform="matrix(.1 0 0 -.1 0 1254)"><path d="M0 6270V0h12540v12540H0zm5361 6110c-839-4-1065-8-1069-17-2-7 1-13 8-13 6 0 8-4 5-10-3-5 2-10 11-10 25 0 84-23 84-32 0-4-15-8-32-8-65 0-63-17 3-26 82-10 159-6 178 9 12 9 13 9 7 0-15-25 60-20 89 6 25 23 53 33 60 22 2-5-10-11-27-15-19-4-28-10-22-15 15-15 108-31 118-20 17 15 172 11 186-5 10-13 4-15-37-19-26-2 292-5 707-8 471-2-32-6-1340-9l-2095-5-125-24c-332-62-624-188-887-384-132-98-335-300-427-424-38-51-73-90-79-86q-9 4.5-3-6c4-6-15-48-42-94-110-182-182-355-232-556-64-251-60 15-62-4391-2-2208-5-3578-8-3045-3 534-7 867-9 740-3-126-6-206-8-177-2 28-9 52-15 52s-8-12-5-30c5-23 3-30-8-30s-14 7-9 25c4 15 2 25-5 25-6 0-12-19-12-42-1-24-4-33-6-20-2 12-9 20-14 17-5-4-9-1-9 4 0 6 6 11 13 12q13.5 0 0 6c-7 2-13 9-13 14 0 6 5 7 11 3 8-4 8 0 0 15-18 34-31 25-33-24-1-25-2-53-2-62-1-10 6-18 14-18 10 0 14-9 12-28s2-27 13-27c8 0 15-9 15-20 0-13-7-20-20-20-11 0-20 7-20 15s-5 15-11 15c-7 0-8-11-4-29 7-32-10-75-26-66-5 4-9-29-8-82 1-51 4-76 8-59 6 28 31 49 31 26 0-6-4-8-10-5-13 8-13-26 0-59 13-34 2-89-16-82-11 4-14-23-17-132-3-171-8 2986-8 5398 0 993 2 1825 4 1850 3 25 10 73 16 108 7 35 14 78 16 95 4 32 37 146 58 202 7 17 12 32 12 35 2 14 20 63 53 145 69 174 212 423 234 409 7-4 8-3 4 4-9 15 12 47 110 167 216 266 562 528 859 650 53 22 255 95 280 102 118 30 257 57 330 63 44 4 1027 7 2185 6 1541-1 1820-2 1041-6m1127 3c-10-2-28-2-40 0-13 2-5 4 17 4 22 1 32-1 23-4m-1944-49c5-13 15-15 47-10 31 5 40 3 36-6-2-7-17-13-33-12-16 0-21-1-11-3 9-3 17-7 17-11 0-8-149-6-157 2-4 3 5 6 19 6 17 0 28 8 36 25 13 28 37 33 46 9m321 6c-3-5-12-7-20-3-21 7-19 13 6 13 11 0 18-4 14-10m-405-20c0-5-5-10-11-10-5 0-7 5-4 10 3 6 8 10 11 10 2 0 4-4 4-10m310-20c0-5-5-10-11-10-5 0-7 5-4 10 3 6 8 10 11 10 2 0 4-4 4-10m440-3280c-404-3-725-6-712-8 13-1 20-6 17-12-3-5 2-10 12-11 16 0 16-1-2-10-16-7-14-8 10-3 30 5 52 6 79 3 11-2 12-7 5-20-13-25-11-59 3-59 6 0 8-3 5-6-4-4-12-2-19 3-15 12-60 2-56-12 5-15-31-18-47-5-8 7-12 17-8 23s9 3 14-9c5-14 7-11 6 12v32l-23-24c-13-13-24-33-25-46-1-23-1-23-9 2-4 14-8 19-9 13-1-7-10-13-21-13-19 0-19-1 2-25 14-16 25-22 33-15 6 5 17 5 24 1 9-6 10-11 2-15-6-4-11-1-11 6s-5 5-12-6c-9-16-13-17-22-5-16 20-52 47-42 32 4-7 3-13-2-13s-15-11-22-25c-8-14-24-28-37-31-12-4-20-10-17-15s-9-9-25-9c-20 0-30-5-29-12 2-7-3-12-11-10s-11-3-8-12c4-9 2-18-4-22-6-3-13 3-16 15s-12 21-20 21c-10 0-11-5-5-17 5-10 7-24 5-30-6-16-33-17-33-1 0 6-8 1-19-11-10-12-25-19-34-16-16 7-32-21-16-30 5-4 8-1 7 6-4 17 44 17 50 0 3-8 0-11-5-8s-10 0-10-8c0-11 4-12 14-3 7 6 16 8 20 4 3-3 1-6-5-6-7 0-12-5-12-11 0-5 4-7 10-4s7-1 4-9c-3-9-10-16-16-16-5 0-6 5-3 10 3 6-1 10-10 10-13 0-14-4-5-20 14-26 2-26-20 0-15 17-19 18-23 5-4-8-3-14 1-12 13 4 54-31 44-37-6-3-17 1-25 9-22 21-24 19-20-22 1-21-3-40-10-45s-3-8 14-8c14 0 31 6 39 13 8 6 6 2-4-10-10-13-23-20-28-17-6 4-3-5 7-19 11-17 13-27 5-32-6-3-10-3-9 2 5 27-1 35-16 23-17-14-20-40-4-40 6 0 9-8 7-17-4-24-23-18-24 7-2 25-13 38-22 25-11-16-42-14-42 2 0 10 7 14 20 10 11-3 20-1 20 5 0 5 5 6 10 3 6-3 10 5 10 19 0 27-16 44-23 24-2-7-8-9-13-5s-2 12 5 16c7 5 10 14 7 20-4 6-2 11 3 11 6 0 11-7 11-15 0-9 6-12 16-8 11 4 12 8 4 13-9 5-9 9-1 14 14 9 14 26 0 26-5 0-7-4-4-10 4-6-7-10-26-10-26 0-30-3-26-19 2-10 1-25-4-32-6-11-12-10-27 5-11 10-23 13-26 8s3-12 14-15c12-3 20-14 20-26 0-18-6-21-46-21-27 0-51-6-60-15-9-8-11-15-5-15 15 0 14-23-1-38-9-9-14-7-24 6-12 15-13 15-14 1 0-18 24-32 34-21 4 3 15 7 25 9 14 2 20-6 25-27 3-17 10-30 16-30s6 9 0 26c-14 35-14 34 20 34 23 0 30-4 30-20 0-14 7-20 21-20s19-5 17-17c-2-10-11-17-21-17-9 1-17-2-17-7s-7-9-16-9c-8 0-12-5-9-11 5-7-46-10-164-8-95 1-175-1-178-5-4-3 340-7 763-8l769-3-838-5-839-5v-520c0-286-4-529-9-540-7-17-8-16-10 10-1 24-3 26-6 8-2-13-9-23-14-23s-9-10-9-22c0-20-1-21-13-4-12 16-14 16-26 2-17-20-31-20-31 0 0 8-4 13-9 9-5-3-12 3-16 14-8 27-35 35-54 16-13-12-13-15-1-15 10 0 11-3 3-11-16-16-37-1-24 15 6 7 7 17 3 21-4 5-2 5 5 1 26-15 24 18-3 41-25 22-29 22-34 7-6-15-8-15-23 6-9 13-20 20-24 16s-1-11 7-16c8-6 11-10 6-10-6 0-1-7 10-15 13-10 14-14 5-15-10 0-11-3-2-14 9-10 8-16-4-26-8-7-15-18-15-26 0-19-19-27-34-15-11 9-18 8-30-5-10-9-14-19-11-23 4-3 13 3 21 13 8 11 14 18 15 15 9-53 13-56 44-39 14 7 28 10 32 7 3-4-1-7-10-7-10 0-17-6-17-13 0-8-9-22-20-32s-18-21-15-23c3-3 21 10 41 29 19 19 32 26 29 17-4-9-12-19-20-21-8-4-11-17-9-36 5-40-4-39-43 4-18 19-35 31-38 26-3-6 0-13 6-17 8-5 8-9-1-14-7-4-9-13-5-20 6-9 9-9 16 1 4 7 11 10 15 6 11-11-32-51-45-43-6 4-8 12-5 18 4 6 2 8-4 4-6-3-12 3-14 16-2 12-10 23-18 25-13 4-13 3 0-6s13-14 2-32c-8-11-9-18-3-15 5 4 12 2 16-4 3-5-4-11-17-11l-23-2 23-4c25-5 31-33 6-33-9 0-25 10-36 23-18 20-19 20-13 2 12-36 14-58 7-69-3-6-7-20-9-31-1-11 1-14 3-7 8 17 24 15 24-3 0-8-6-16-12-16-25-2-53 3-63 12-15 15-24 10-20-11 2-13-2-20-11-20-8 0-12-4-9-10 3-5-1-10-9-10-9 0-16-7-16-16 0-10-6-14-15-10-10 4-15-1-15-14 0-11-4-20-10-20-14 0-12-27 3-33 10-4-14-8-38-7-10 1-35-28-35-40 0-7-7-10-14-7-9 4-13 1-11-6 7-21 13-101 8-114-6-16-40-17-45-1-3 7-7 5-11-6-5-11-3-15 5-10 7 4 8 3 4-5-4-6-12-9-17-6-5 4-16 2-26-3-12-7-5-11 30-13 39-3 48-1 53 14 4 14 9 16 20 6 10-8 14-8 14 0 0 6-4 11-10 11-5 0-10 5-10 11 0 5 4 8 9 4 5-3 12-1 16 5 3 5 11 10 18 10 8 0 8-3-1-12-15-15-16-32-2-23 6 3 10 1 10-5s6-8 13-4c6 4 9 4 5 0-3-4-2-21 2-37 5-17 5-29-1-29-5 0-9 8-9 19 0 13-7 19-25 19-14 0-25-5-25-10s5-6 10-3c6 3 10 1 10-5 0-7-8-9-20-5-23 7-27-7-6-24 11-9 15-9 19 1s7 11 18 1c11-11 10-13-4-13-9 0-17-5-17-10 0-6-8-5-19 2s-17 16-15 20c3 4 0 8-6 8s-8 6-4 13 3 9-2 4-9-12-10-15c-2-18-17-42-26-42-6 0-6 6 1 14 9 10 9 16 1 21s-8 10 0 20 8 15-1 20c-6 4-15 1-20-6-8-12-10-12-18 0-6 9-8 5-8-14s2-23 8-14c7 11 9 11 9 1 0-7 5-10 10-7 6 3 10-1 10-9s-9-20-19-25c-15-9-22-6-36 15-9 15-12 23-6 20 6-4 11-1 11 8 0 21-16 28-29 12-8-10-5-21 17-48 23-30 29-33 41-21 7 8 16 12 19 9s-5-14-16-25c-20-16-20-20-7-31s14-10 10 3c-8 19 13 33 28 18 9-9 8-11-3-6-11 4-15-2-17-22 0-15-6-29-12-31s-9-8-6-12c3-5-3-8-14-7-11 0-17 5-15 9 3 4 0 8-6 8s-8 5-5 10c3 6 1 10-4 10-6 0-11-6-12-12 0-7-4-3-9 10-10 24-35 30-43 9-6-17 1-28 31-49 21-14 21-16 5-29-11-9-14-10-9-1 5 8 1 12-11 12-14 0-15 2-5 9 11 7 11 9-2 14-10 4-21-1-28-13-10-15-16-17-32-8-21 11-21 11-2-11 11-11 16-24 13-28-11-10 14-33 37-34 18 0 19-1 3-7-16-7-14-10 12-30 17-12 35-22 40-22 6 0 8-7 5-15-6-16 17-45 36-45 6 0 9-4 5-10-3-5-13-6-22-3-11 4-14 3-9-5 4-7 3-12-3-12-17 0-24 22-10 31 8 5 10 9 6 9-18 0-58-34-53-46 3-8-1-14-9-14-9 0-12-6-9-15 4-8 13-15 21-15s12 4 8 9c-3 5-1 12 5 16s10-6 10-24c0-24-3-29-17-24-22 9-53 40-46 47 4 3 1 6-5 6-7 0-12-11-12-25 0-13-7-28-16-33-14-8-14-10 0-25 9-8 16-21 16-27s5-8 10-5c6 3 10 1 10-4 0-6-9-11-21-11-28 0-21-34 8-38 16-2 20-8 16-20-11-30-51-45-50-19 1 34-4 45-20 42-10-1-17-8-15-15s0-20-4-29c-11-23-11-161 0-161 4 0 3-6-3-13-13-16-6-154 8-171 12-14-20-151-32-140-4 4-7-46-7-111s-3-115-6-112c-4 3-9 902-12 1997l-5 1990 1754-2c1235-2 1537-4 1019-8m727-72c-3-7-5-2-5 12s2 19 5 13c2-7 2-19 0-25m-1294 5c-7-3-13-12-14-21 0-11-2-13-6-4-6 15 17 46 26 36 3-4 0-9-6-11m30-53c-3-11 0-20 6-20s11-5 11-10c0-7-6-7-19-1-10 6-21 7-25 4-3-3-6 1-6 10 0 10 5 17 10 17 6 0 10 7 10 16 0 8 4 13 9 10s7-15 4-26m-206-126c-3-3-12-4-19-1-8 3-5 6 6 6 11 1 17-2 13-5m-157-38c0-3-4-8-10-11-5-3-10-1-10 4 0 6 5 11 10 11 6 0 10-2 10-4m-13-62c-3-3-12-4-19-1-8 3-5 6 6 6 11 1 17-2 13-5m-107-26c0-9 3-9 9 1 8 12 13 12 35-3 21-13 25-22 20-43-5-17-3-24 4-19 6 3 13 2 17-4 3-5-5-15-19-22-14-6-26-19-26-30 0-10-5-18-11-18-5 0-7-4-4-10 11-18-7-10-26 12-23 26-24 29-4 22 8-4 15-10 15-16 0-16 17 1 23 23 4 15 2 19-8 15-9-3-12 0-8 10 3 7 9 14 15 14 5 0 6 5 3 10-3 6-2 10 3 10s9 7 9 15c0 9-10 15-24 15s-31 7-39 15c-14 13-14 15 0 15 9 0 16-6 16-12m-228-257c8 12 9 12 5-1-2-8 3-21 12-27 14-11 12-12-11-11-15 1-24 6-22 10 3 4 1 8-5 8-5 0-12-6-14-12-3-7-5-1-4 14 1 22 4 25 15 16 10-9 16-8 24 3m1456-178c-32-2-84-2-115 0-32 2-6 3 57 3s89-1 58-3m1440-390c-10-2-28-2-40 0-13 2-5 4 17 4 22 1 32-1 23-4m-3603-711c-8-8-25 10-19 20q6 9 15-3c4-7 6-15 4-17m135-22c4 0 7-7 7-15s-4-15-8-15c-5 0-5-8-2-17 6-16 5-16-10-4-13 10-15 17-6 27 9 11 7 14-9 14-14 0-19 7-19 24 0 24 0 24 20 5 11-10 24-19 27-19m1098 3c-179-2-476-2-660 0-183 1-36 2 327 2s513-1 333-2m455 0c-24-2-62-2-85 0-24 2-5 4 42 4s66-2 43-4m195 0c-15-2-42-2-60 0s-6 4 27 4 48-2 33-4m565 0c-13-2-33-2-45 0-13 2-3 4 22 4s35-2 23-4m-2483-7c0-2-8-10-17-17-16-13-17-12-4 4s21 21 21 13m47-2c-3-3-12-4-19-1-8 3-5 6 6 6 11 1 17-2 13-5m63-24c0-5-4-10-10-10-5 0-10 5-10 10 0 6 5 10 10 10 6 0 10-4 10-10m10-50c0-5-4-10-10-10-5 0-10 5-10 10 0 6 5 10 10 10 6 0 10-4 10-10m-153-77c-4-3 1-12 11-19 16-13 16-13 0-14-10 0-18 5-18 11 0 8-6 7-17-2-15-11-14-10 1 9 11 12 21 22 24 22s2-3-1-7m-37-89c0-2-9-4-21-4-11 0-18 4-14 10 5 8 35 3 35-6m-20-24c0-5-4-10-10-10-5 0-10 5-10 10 0 6 5 10 10 10 6 0 10-4 10-10m-80-87c0-3-7-2-16 1-11 4-15 2-11-8 3-7 0-19-6-26-9-10-7-11 11-5 19 5 22 3 22-19 0-14-4-26-10-26-5 0-10 7-10 16 0 14-2 15-17 3s-16-12-10 4c4 10 2 17-6 17s-8 3 2 9c8 5 10 14 6 21-9 15 13 30 32 23 7-3 13-7 13-10m70-13c0-5-7-10-15-10s-15 5-15 10c0 6 7 10 15 10s15-4 15-10m-139-63c-10-9-11-8-5 6 3 10 9 15 12 12s0-11-7-18m-121-47c0-5-4-10-10-10-5 0-10-5-10-11 0-5 4-7 10-4 5 3 7 0 4-8s-1-18 5-22c6-3 11-1 11 4 0 6 7 11 15 11 22 0 18-24-8-48-18-17-24-19-24-7 0 8 4 15 9 15s6 5 3 10c-3 6-17 7-31 4-29-7-33 14-8 51 17 25 34 33 34 15m105-30c3-5 1-10-4-10-6 0-11 5-11 10 0 6 2 10 4 10 3 0 8-4 11-10m-27-84c-2-1-10-7-20-14-12-10-18-10-24-1q-6 10.5 3 6c6-4 14 0 17 9 3 8 11 12 17 9 5-4 9-8 7-9m-114-201c-4-8-11-15-16-15-6 0-5 6 2 15 7 8 14 15 16 15s1-7-2-15m726 5c-10-6 58-10 200-12l215-3-232-3-233-2-1-32c-1-18-5-44-9-58-7-23-8-23-10 10-2 32-3 33-9 10-6-22-8-23-14-7-8 22 2 69 13 62 4-3 10 2 14 10 3 8 13 15 21 15 9 0 13 5 10 10-4 6 6 10 22 10 22 0 25-2 13-10m-795-100c-3-5-12-7-20-3-21 7-19 13 6 13 11 0 18-4 14-10m-58-32c-3-8-6-5-6 6-1 11 2 17 5 13 3-3 4-12 1-19m-57-23c0-2-9-3-19-2-11 0-18 5-15 9 4 6 34 0 34-7m34-30c19-15 19-15-3-15-12 0-19 4-16 10s1 10-4 10c-22 0-10-30 12-31 17-1 18-2 4-6-26-7-50 16-36 33s19 17 43-1m813-102c-3-10-5-4-5 12 0 17 2 24 5 18 2-7 2-21 0-30m0-85c-2-13-4-5-4 17-1 22 1 32 4 23 2-10 2-28 0-40m-787 2c-24-24-30-25-30-4 0 8 4 13 9 9 5-3 12-1 16 5 3 5 10 10 16 10 5 0 0-9-11-20m-26-54c-5-14-9-15-15-5-5 8-3 17 4 21 15 9 19 4 11-16m-34-63c0-14-2-15-9-4-5 7-14 10-20 7-6-4-11-2-11 3 0 6 9 11 20 11 12 0 20-7 20-17m-5-53c-3-5-13-10-21-10s-14 5-14 10c0 6 9 10 21 10 11 0 17-4 14-10m-158-1576c-3-3-12-4-19-1-8 3-5 6 6 6 11 1 17-2 13-5m210 0c-3-3-12-4-19-1-8 3-5 6 6 6 11 1 17-2 13-5M300 3669c0-5-7-9-15-9-9 0-12 6-9 15 6 15 24 11 24-6m17-16c-3-10-5-4-5 12 0 17 2 24 5 18 2-7 2-21 0-30m3-38c0-16-38-16-43 0-4 8 2 12 19 11 13 0 24-6 24-11m-63-52c-3-10-5-4-5 12 0 17 2 24 5 18 2-7 2-21 0-30m3-90c0-7-7-13-15-13s-15 6-15 13c0 8 7 14 15 14s15-6 15-14m-20-54c0-6-4-7-10-4-5 3-10 11-10 16 0 6 5 7 10 4 6-3 10-11 10-16m50-40c0-17-4-28-10-24-5 3-10 17-10 31 0 13 5 24 10 24 6 0 10-14 10-31m29-46c-1-57-2-62-8-31-7 34-4 98 5 98 2 0 3-30 3-67m-59 17c0-35-2-39-14-28-8 7-10 15-5 16 5 2 9 15 9 28s2 24 5 24 5-18 5-40m-93-727c-1-43-3-8-3 77s2 120 3 78c2-43 2-113 0-155m0-115c-3-7-5-2-5 12s2 19 5 13c2-7 2-19 0-25m180-345c-3-10-5-2-5 17s2 27 5 18c2-10 2-26 0-35m-170-70c-3-10-5-2-5 17s2 27 5 18c2-10 2-26 0-35m190-55c-3-8-6-5-6 6-1 11 2 17 5 13 3-3 4-12 1-19m-141-163c9-39 0-30-15 15-6 19-7 30-2 25 5-6 13-23 17-40m181-7c-3-8-6-5-6 6-1 11 2 17 5 13 3-3 4-12 1-19m10-40c-3-8-6-5-6 6-1 11 2 17 5 13 3-3 4-12 1-19m37-98c5-20 3-19-8 5-7 17-16 41-20 55-5 20-3 19 8-5 7-16 16-41 20-55m-204 60c0-5-2-10-4-10-3 0-8 5-11 10-3 6-1 10 4 10 6 0 11-4 11-10m55-149c3-5 2-12-3-15s-9 1-9 9c0 17 3 19 12 6m244-129c18-35 28-61 23-58s-15 19-22 36c-9 21-16 27-21 19-4-7-7-3-6 12 0 13-3 33-8 44-16 38 3 9 34-53m121-212c6-11 8-20 6-20-3 0-10 9-16 20s-8 20-6 20c3 0 10-9 16-20m51-77c13-16 12-17-3-4-10 7-18 15-18 17 0 8 8 3 21-13m99-128c13-14 21-25 18-25-2 0-15 11-28 25s-21 25-18 25c2 0 15-11 28-25m135-145c33-33 57-60 54-60-2 0-31 27-64 60s-57 60-54 60c2 0 31-27 64-60m126-117c13-16 12-17-3-4-10 7-18 15-18 17 0 8 8 3 21-13"/><path d="M4453 12223c75-2 199-2 275 0 75 1 13 3-138 3s-213-2-137-3M323 4305c0-33 2-45 4-27s2 45 0 60-4 0-4-33m-1-90c0-16 2-22 5-12 2 9 2 23 0 30-3 6-5-1-5-18m-152-441c0-8 5-12 10-9 6 3 10 10 10 16 0 5-4 9-10 9-5 0-10-7-10-16m3-59c0-22 2-30 4-17 2 12 2 30 0 40-3 9-5-1-4-23m-3-126c0-20 4-29 9-23 15 15 17 47 4 51-9 3-13-6-13-28m1-255c0-11 3-14 6-6 3 7 2 16-1 19-3 4-6-2-5-13m4342 8969c9-2 23-2 30 0 6 3-1 5-18 5-16 0-22-2-12-5m-275-3290c12-2 32-2 45 0 12 2 2 4-23 4s-35-2-22-4m75 1c7-7 148-6 156 1 2 3-33 5-79 5s-81-3-77-6m217-83c0-25 6-27 13-6 4 8 2 17-3 20-6 4-10-3-10-14m-360-225c0-2 7-6 15-10 8-3 15-1 15 4 0 6-7 10-15 10s-15-2-15-4m-260-127c0-5 5-7 10-4 6 3 10 8 10 11 0 2-4 4-10 4-5 0-10-5-10-11m152-1c-7-7-12-16-12-21s7-1 16 8 14 18 12 20c-2 3-10-1-16-7m-472-92c0-2 7-7 16-10 8-3 12-2 9 4-6 10-25 14-25 6m200-21c0-8 4-15 10-15 5 0 7 7 4 15-4 8-8 15-10 15s-4-7-4-15m60-16c0-5 5-7 10-4 6 3 10 8 10 11 0 2-4 4-10 4-5 0-10-5-10-11m-80-19c0-5 5-10 11-10 5 0 7 5 4 10-3 6-8 10-11 10-2 0-4-4-4-10m41-56c0-11 3-14 6-6 3 7 2 16-1 19-3 4-6-2-5-13m159-53c0-5 5-13 10-16 6-3 10-2 10 4 0 5-4 13-10 16-5 3-10 2-10-4m-43-50c-4-17-1-19 32-14 44 7 53 13 20 13-14 0-30 5-36 11-7 7-12 5-16-10m-57-1c-13-8-12-10 3-10 9 0 17 5 17 10 0 12-1 12-20 0m-398-780c0-14 2-19 5-12 2 6 2 18 0 25-3 6-5 1-5-13m1-105c0-33 2-45 4-27s2 45 0 60-4 0-4-33m-223-103c0-5 7-16 16-23 14-12 16-11 13 5-4 20-29 35-29 18m53-40c-26-4-30-17-8-26 9-3 18 1 21 9 3 7 12 11 20 8s11-9 8-14 0-9 5-9c17 0 13 18-6 28-10 4-28 6-40 4m75-29c7-3 16-2 19 1 4 3-2 6-13 5-11 0-14-3-6-6m-204-68c11-8 14-15 7-15s-9-5-5-11c4-8 9-7 15 2 9 15-7 39-25 39-6 0-2-7 8-15m31-155c-3-5-1-10 4-10 6 0 11 5 11 10 0 6-2 10-4 10-3 0-8-4-11-10m-282-185c-3-9-3-18-1-21 3-3 8 4 11 16 6 23-1 27-10 5m-23-60c0-8 4-15 10-15 5 0 7 7 4 15-4 8-8 15-10 15s-4-7-4-15m-50-42c0-4 5-15 10-23 8-13 10-13 10 2 0 9-4 20-10 23-5 3-10 3-10-2m-94-179c-4-11-1-14 11-12 9 2 18 9 21 16 6 18-25 15-32-4m-131-186c-19-19-19-19 12-13 32 5 32 5 26-26-4-22-3-30 5-25 6 3 13-3 17-14 3-11 11-20 17-20s7 7 3 18c-4 9-8 25-9 35-2 10-13 28-27 41-24 22-25 22-44 4m-60-98c3-5 13-10 21-10s12 5 9 10c-3 6-13 10-21 10s-12-4-9-10m-29-99c-4-5-2-12 3-15 5-4 12-2 15 3 4 5 2 12-3 15-5 4-12 2-15-3m-17-294c-14-10-14-14-3-25 12-11 14-9 14 7 0 11 6 22 13 24 6 3 8 6 2 6-5 0-17-5-26-12m-57-157c0-14 2-19 5-12 2 6 2 18 0 25-3 6-5 1-5-13m1-80c0-30 2-43 4-27 2 15 2 39 0 55-2 15-4 2-4-28m357 961c0-6 4-13 10-16s7 1 4 9c-7 18-14 21-14 7"/></g></svg>